<svg width="24" height="15" viewBox="0 0 24 15" fill="none" xmlns="http://www.w3.org/2000/svg">
<path d="M5.06039 7.48C5.40039 6.2 5.74039 4.66 6.06039 3.3H6.14039C6.48039 4.66 6.82039 6.2 7.16039 7.48L7.44039 8.6H4.78039L5.06039 7.48ZM0.240391 14H3.42039L4.18039 11H8.04039L8.80039 14H12.0804L8.02039 0.98H4.30039L0.240391 14ZM16.0038 14.24C16.6838 14.24 17.2038 14.12 17.5438 13.98L17.1838 11.7C17.0238 11.74 16.9438 11.74 16.8238 11.74C16.5838 11.74 16.2638 11.54 16.2638 10.9V0.0199988H13.1838V10.78C13.1838 12.86 13.8838 14.24 16.0038 14.24ZM21.8046 14.24C22.4846 14.24 23.0046 14.12 23.3446 13.98L22.9846 11.7C22.8246 11.74 22.7446 11.74 22.6246 11.74C22.3846 11.74 22.0646 11.54 22.0646 10.9V0.0199988H18.9846V10.78C18.9846 12.86 19.6846 14.24 21.8046 14.24Z" fill="#1D1C1A"/>
</svg>
