<svg width="26" height="34" viewBox="0 0 26 34" fill="none" xmlns="http://www.w3.org/2000/svg">
<path fill-rule="evenodd" clip-rule="evenodd" d="M5.35 24.9473C5.35 25.7077 5.92375 26.3298 6.625 26.3298H7.9V31.1686C7.9 32.3161 8.75425 33.2424 9.8125 33.2424C10.8708 33.2424 11.725 32.3161 11.725 31.1686V26.3298H14.275V31.1686C14.275 32.3161 15.1293 33.2424 16.1875 33.2424C17.2458 33.2424 18.1 32.3161 18.1 31.1686V26.3298H19.375C20.0763 26.3298 20.65 25.7077 20.65 24.9473V11.1223H5.35V24.9473ZM2.1625 11.1223C1.10425 11.1223 0.25 12.0486 0.25 13.1961V22.8736C0.25 24.0211 1.10425 24.9473 2.1625 24.9473C3.22075 24.9473 4.075 24.0211 4.075 22.8736V13.1961C4.075 12.0486 3.22075 11.1223 2.1625 11.1223ZM23.8375 11.1223C22.7792 11.1223 21.925 12.0486 21.925 13.1961V22.8736C21.925 24.0211 22.7792 24.9473 23.8375 24.9473C24.8957 24.9473 25.75 24.0211 25.75 22.8736V13.1961C25.75 12.0486 24.8957 11.1223 23.8375 11.1223ZM17.5008 3.04848L19.1646 1.24432C19.4133 0.974727 19.4133 0.539239 19.1646 0.269651C18.916 6.23326e-05 18.5144 6.23326e-05 18.2658 0.269651L16.3788 2.30884C15.3588 1.76275 14.2176 1.44478 13 1.44478C11.776 1.44478 10.6285 1.76275 9.60213 2.31576L7.70875 0.262738C7.46013 -0.00685019 7.0585 -0.00685019 6.80988 0.262738C6.56125 0.532326 6.56125 0.967815 6.80988 1.2374L8.48013 3.04848C6.58675 4.56232 5.35 6.99553 5.35 9.7398H20.65C20.65 6.98862 19.4069 4.55541 17.5008 3.04848ZM10.45 6.97479H9.175V5.59229H10.45V6.97479ZM16.825 6.97479H15.55V5.59229H16.825V6.97479Z" fill="#212121" fill-opacity="0.87"/>
<mask id="mask0_0_3340" style="mask-type:alpha" maskUnits="userSpaceOnUse" x="0" y="0" width="26" height="34">
<path fill-rule="evenodd" clip-rule="evenodd" d="M5.35 24.9473C5.35 25.7077 5.92375 26.3298 6.625 26.3298H7.9V31.1686C7.9 32.3161 8.75425 33.2424 9.8125 33.2424C10.8708 33.2424 11.725 32.3161 11.725 31.1686V26.3298H14.275V31.1686C14.275 32.3161 15.1293 33.2424 16.1875 33.2424C17.2458 33.2424 18.1 32.3161 18.1 31.1686V26.3298H19.375C20.0763 26.3298 20.65 25.7077 20.65 24.9473V11.1223H5.35V24.9473ZM2.1625 11.1223C1.10425 11.1223 0.25 12.0486 0.25 13.1961V22.8736C0.25 24.0211 1.10425 24.9473 2.1625 24.9473C3.22075 24.9473 4.075 24.0211 4.075 22.8736V13.1961C4.075 12.0486 3.22075 11.1223 2.1625 11.1223ZM23.8375 11.1223C22.7792 11.1223 21.925 12.0486 21.925 13.1961V22.8736C21.925 24.0211 22.7792 24.9473 23.8375 24.9473C24.8957 24.9473 25.75 24.0211 25.75 22.8736V13.1961C25.75 12.0486 24.8957 11.1223 23.8375 11.1223ZM17.5008 3.04848L19.1646 1.24432C19.4133 0.974727 19.4133 0.539239 19.1646 0.269651C18.916 6.23326e-05 18.5144 6.23326e-05 18.2658 0.269651L16.3788 2.30884C15.3588 1.76275 14.2176 1.44478 13 1.44478C11.776 1.44478 10.6285 1.76275 9.60213 2.31576L7.70875 0.262738C7.46013 -0.00685019 7.0585 -0.00685019 6.80988 0.262738C6.56125 0.532326 6.56125 0.967815 6.80988 1.2374L8.48013 3.04848C6.58675 4.56232 5.35 6.99553 5.35 9.7398H20.65C20.65 6.98862 19.4069 4.55541 17.5008 3.04848ZM10.45 6.97479H9.175V5.59229H10.45V6.97479ZM16.825 6.97479H15.55V5.59229H16.825V6.97479Z" fill="white"/>
</mask>
<g mask="url(#mask0_0_3340)">
<rect x="-2" y="0.0605469" width="30" height="33.1818" fill="#1D1C1A"/>
</g>
</svg>
