<svg width="24" height="34" viewBox="0 0 24 34" fill="none" xmlns="http://www.w3.org/2000/svg">
<path fill-rule="evenodd" clip-rule="evenodd" d="M21.9263 29.1383C20.7346 31.1814 19.4124 33.2424 17.4053 33.2424C15.4942 33.2424 14.8081 31.8808 12.6039 31.8808C10.2384 31.8808 9.56892 33.2424 7.7564 33.2424C5.74803 33.2424 4.32847 31.071 3.0702 29.0473C1.43816 26.3972 0.0506034 22.2379 0.00196214 18.2442C-0.0300387 16.128 0.32709 14.0476 1.24231 12.2804C2.53259 9.81675 4.8328 8.14051 7.34935 8.08533C9.27451 8.01076 10.9885 9.57664 12.1648 9.57664C13.2913 9.57664 15.3956 8.08533 17.7803 8.08533C18.8069 8.08533 21.55 8.43579 23.2473 11.3796C23.1181 11.4706 19.9999 13.4228 19.9999 17.7476C20.1471 22.6794 23.9347 24.4093 24 24.4093C23.9347 24.5003 23.4278 26.7656 21.9263 29.1383M13.4871 2.56447C14.6122 1.07464 16.3915 0.0605469 17.9275 0.0605469C18.0235 1.99479 17.4053 3.88876 16.2776 5.26972C15.2983 6.75955 13.5831 7.884 12.001 7.66328C11.6592 5.72904 12.6039 3.79779 13.4871 2.56447" fill="#212121" fill-opacity="0.87"/>
<mask id="mask0_0_3325" style="mask-type:alpha" maskUnits="userSpaceOnUse" x="0" y="0" width="24" height="34">
<path fill-rule="evenodd" clip-rule="evenodd" d="M21.9263 29.1383C20.7346 31.1814 19.4124 33.2424 17.4053 33.2424C15.4942 33.2424 14.8081 31.8808 12.6039 31.8808C10.2384 31.8808 9.56892 33.2424 7.7564 33.2424C5.74803 33.2424 4.32847 31.071 3.0702 29.0473C1.43816 26.3972 0.0506034 22.2379 0.00196214 18.2442C-0.0300387 16.128 0.32709 14.0476 1.24231 12.2804C2.53259 9.81675 4.8328 8.14051 7.34935 8.08533C9.27451 8.01076 10.9885 9.57664 12.1648 9.57664C13.2913 9.57664 15.3956 8.08533 17.7803 8.08533C18.8069 8.08533 21.55 8.43579 23.2473 11.3796C23.1181 11.4706 19.9999 13.4228 19.9999 17.7476C20.1471 22.6794 23.9347 24.4093 24 24.4093C23.9347 24.5003 23.4278 26.7656 21.9263 29.1383M13.4871 2.56447C14.6122 1.07464 16.3915 0.0605469 17.9275 0.0605469C18.0235 1.99479 17.4053 3.88876 16.2776 5.26972C15.2983 6.75955 13.5831 7.884 12.001 7.66328C11.6592 5.72904 12.6039 3.79779 13.4871 2.56447" fill="white"/>
</mask>
<g mask="url(#mask0_0_3325)">
<rect x="-3" y="0.0605469" width="30" height="33.1818" fill="#1D1C1A"/>
</g>
</svg>
