<svg width="469" height="488" viewBox="0 0 469 488" fill="none" xmlns="http://www.w3.org/2000/svg">
<path opacity="0.5" fill-rule="evenodd" clip-rule="evenodd" d="M214.474 293.421C214.474 335.383 180.308 369.399 138.163 369.399C96.0162 369.399 61.8506 335.383 61.8506 293.421C61.8506 251.459 96.0162 217.442 138.163 217.442C180.308 217.442 214.474 251.459 214.474 293.421Z" fill="#003262"/>
<path opacity="0.5" fill-rule="evenodd" clip-rule="evenodd" d="M466.083 78.9813C466.083 120.943 431.918 154.96 389.772 154.96C347.626 154.96 313.46 120.943 313.46 78.9813C313.46 37.0193 347.626 3.00256 389.772 3.00256C431.918 3.00256 466.083 37.0193 466.083 78.9813Z" fill="#003262"/>
<path opacity="0.5" fill-rule="evenodd" clip-rule="evenodd" d="M414.104 324.661C414.104 346.798 396.08 364.743 373.847 364.743C351.613 364.743 333.589 346.798 333.589 324.661C333.589 302.525 351.613 284.58 373.847 284.58C396.08 284.58 414.104 302.525 414.104 324.661Z" fill="#003262"/>
<path opacity="0.5" fill-rule="evenodd" clip-rule="evenodd" d="M132.301 14.0249C132.301 36.1615 114.278 54.1067 92.044 54.1067C69.81 54.1067 51.7863 36.1615 51.7863 14.0249C51.7863 -8.1118 69.81 -26.057 92.044 -26.057C114.278 -26.057 132.301 -8.1118 132.301 14.0249Z" fill="#003262"/>
<path d="M337.407 396.909H356.529C358.197 396.909 359.548 398.255 359.548 399.915V457.032C359.548 458.693 360.9 460.039 362.568 460.039H385.716" stroke="#BDBDBD" stroke-width="2"/>
<path d="M237.769 419.956H260.917C262.585 419.956 263.937 418.611 263.937 416.95V392.901C263.937 391.241 265.288 389.895 266.956 389.895H288.091" stroke="#BDBDBD" stroke-width="2"/>
<path d="M360.555 261.632V293.698C360.555 295.358 359.203 296.704 357.536 296.704H265.95C264.282 296.704 262.93 298.05 262.93 299.71V321.755C262.93 323.416 261.579 324.761 259.911 324.761H237.769" stroke="#BDBDBD" stroke-width="2"/>
<path d="M79.7586 110.322H103.913C105.581 110.322 106.932 111.668 106.932 113.328V184.474C106.932 186.134 108.284 187.48 109.952 187.48H145.177" stroke="#BDBDBD" stroke-width="2"/>
<path fill-rule="evenodd" clip-rule="evenodd" d="M81.3705 119.842C76.0988 119.842 71.8093 115.571 71.8093 110.322C71.8093 105.073 76.0988 100.802 81.3705 100.802C86.6422 100.802 90.9316 105.073 90.9316 110.322C90.9316 115.571 86.6422 119.842 81.3705 119.842Z" fill="#FDB515"/>
<path fill-rule="evenodd" clip-rule="evenodd" d="M81.3705 99.2993C75.2665 99.2993 70.2997 104.244 70.2997 110.322C70.2997 116.399 75.2665 121.344 81.3705 121.344C87.4745 121.344 92.4413 116.399 92.4413 110.322C92.4413 104.244 87.4745 99.2993 81.3705 99.2993ZM81.3705 102.305C85.8169 102.305 89.422 105.895 89.422 110.322C89.422 114.749 85.8169 118.338 81.3705 118.338C76.9241 118.338 73.319 114.749 73.319 110.322C73.319 105.895 76.9241 102.305 81.3705 102.305Z" fill="white"/>
<path fill-rule="evenodd" clip-rule="evenodd" d="M237.369 334.281C232.097 334.281 227.808 330.01 227.808 324.761C227.808 319.513 232.097 315.242 237.369 315.242C242.641 315.242 246.93 319.513 246.93 324.761C246.93 330.01 242.641 334.281 237.369 334.281Z" fill="#FDB515"/>
<path fill-rule="evenodd" clip-rule="evenodd" d="M237.369 313.739C231.265 313.739 226.298 318.684 226.298 324.761C226.298 330.839 231.265 335.784 237.369 335.784C243.473 335.784 248.44 330.839 248.44 324.761C248.44 318.684 243.473 313.739 237.369 313.739ZM237.369 316.745C241.815 316.745 245.42 320.334 245.42 324.761C245.42 329.188 241.815 332.778 237.369 332.778C232.922 332.778 229.317 329.188 229.317 324.761C229.317 320.334 232.922 316.745 237.369 316.745Z" fill="white"/>
<path fill-rule="evenodd" clip-rule="evenodd" d="M237.369 429.476C232.097 429.476 227.808 425.205 227.808 419.957C227.808 414.708 232.097 410.437 237.369 410.437C242.641 410.437 246.93 414.708 246.93 419.957C246.93 425.205 242.641 429.476 237.369 429.476Z" fill="#FDB515"/>
<path fill-rule="evenodd" clip-rule="evenodd" d="M237.369 408.934C231.265 408.934 226.298 413.879 226.298 419.956C226.298 426.034 231.265 430.979 237.369 430.979C243.473 430.979 248.44 426.034 248.44 419.956C248.44 413.879 243.473 408.934 237.369 408.934ZM237.369 411.94C241.815 411.94 245.42 415.529 245.42 419.956C245.42 424.383 241.815 427.973 237.369 427.973C232.922 427.973 229.317 424.383 229.317 419.956C229.317 415.529 232.922 411.94 237.369 411.94Z" fill="white"/>
<path fill-rule="evenodd" clip-rule="evenodd" d="M386.322 469.558C381.05 469.558 376.76 465.287 376.76 460.039C376.76 454.79 381.05 450.519 386.322 450.519C391.593 450.519 395.883 454.79 395.883 460.039C395.883 465.287 391.593 469.558 386.322 469.558Z" fill="#FDB515"/>
<path fill-rule="evenodd" clip-rule="evenodd" d="M386.322 449.016C380.218 449.016 375.251 453.961 375.251 460.039C375.251 466.116 380.218 471.061 386.322 471.061C392.426 471.061 397.392 466.116 397.392 460.039C397.392 453.961 392.426 449.016 386.322 449.016ZM386.322 452.022C390.768 452.022 394.373 455.612 394.373 460.039C394.373 464.466 390.768 468.055 386.322 468.055C381.875 468.055 378.27 464.466 378.27 460.039C378.27 455.612 381.875 452.022 386.322 452.022Z" fill="white"/>
<path fill-rule="evenodd" clip-rule="evenodd" d="M137.731 197C132.459 197 128.17 192.729 128.17 187.48C128.17 182.231 132.459 177.961 137.731 177.961C143.003 177.961 147.292 182.231 147.292 187.48C147.292 192.729 143.003 197 137.731 197Z" fill="#FDB515"/>
<path fill-rule="evenodd" clip-rule="evenodd" d="M137.731 176.458C131.627 176.458 126.66 181.403 126.66 187.48C126.66 193.558 131.627 198.503 137.731 198.503C143.835 198.503 148.802 193.558 148.802 187.48C148.802 181.403 143.835 176.458 137.731 176.458ZM137.731 179.464C142.177 179.464 145.783 183.053 145.783 187.48C145.783 191.907 142.177 195.497 137.731 195.497C133.285 195.497 129.68 191.907 129.68 187.48C129.68 183.053 133.285 179.464 137.731 179.464Z" fill="white"/>
<path fill-rule="evenodd" clip-rule="evenodd" d="M287.69 399.414C282.419 399.414 278.129 395.144 278.129 389.895C278.129 384.646 282.419 380.375 287.69 380.375C292.962 380.375 297.251 384.646 297.251 389.895C297.251 395.144 292.962 399.414 287.69 399.414Z" fill="#FDB515"/>
<path fill-rule="evenodd" clip-rule="evenodd" d="M287.69 378.872C281.586 378.872 276.619 383.817 276.619 389.895C276.619 395.972 281.586 400.917 287.69 400.917C293.794 400.917 298.761 395.972 298.761 389.895C298.761 383.817 293.794 378.872 287.69 378.872ZM287.69 381.878C292.137 381.878 295.742 385.468 295.742 389.895C295.742 394.322 292.137 397.911 287.69 397.911C283.244 397.911 279.639 394.322 279.639 389.895C279.639 385.468 283.244 381.878 287.69 381.878Z" fill="white"/>
<path fill-rule="evenodd" clip-rule="evenodd" d="M337.006 406.429C331.734 406.429 327.445 402.158 327.445 396.909C327.445 391.661 331.734 387.39 337.006 387.39C342.277 387.39 346.567 391.661 346.567 396.909C346.567 402.158 342.277 406.429 337.006 406.429Z" fill="#FDB515"/>
<path fill-rule="evenodd" clip-rule="evenodd" d="M337.006 385.887C330.902 385.887 325.935 390.832 325.935 396.909C325.935 402.987 330.902 407.932 337.006 407.932C343.11 407.932 348.077 402.987 348.077 396.909C348.077 390.832 343.11 385.887 337.006 385.887ZM337.006 388.893C341.452 388.893 345.057 392.482 345.057 396.909C345.057 401.336 341.452 404.926 337.006 404.926C332.559 404.926 328.954 401.336 328.954 396.909C328.954 392.482 332.559 388.893 337.006 388.893Z" fill="white"/>
<path fill-rule="evenodd" clip-rule="evenodd" d="M360.555 271.152C355.283 271.152 350.994 266.881 350.994 261.632C350.994 256.383 355.283 252.113 360.555 252.113C365.826 252.113 370.116 256.383 370.116 261.632C370.116 266.881 365.826 271.152 360.555 271.152Z" fill="#FDB515"/>
<path fill-rule="evenodd" clip-rule="evenodd" d="M360.555 250.609C354.451 250.609 349.484 255.555 349.484 261.632C349.484 267.709 354.451 272.655 360.555 272.655C366.659 272.655 371.626 267.709 371.626 261.632C371.626 255.555 366.659 250.609 360.555 250.609ZM360.555 253.616C365.001 253.616 368.606 257.205 368.606 261.632C368.606 266.059 365.001 269.648 360.555 269.648C356.108 269.648 352.503 266.059 352.503 261.632C352.503 257.205 356.108 253.616 360.555 253.616Z" fill="white"/>
<path fill-rule="evenodd" clip-rule="evenodd" d="M460.181 488.92H392.272C389.113 488.92 386.553 486.377 386.553 483.239V343.446C386.553 340.309 389.113 337.766 392.272 337.766H460.181C463.34 337.766 465.9 340.309 465.9 343.446V483.239C465.9 486.377 463.34 488.92 460.181 488.92Z" fill="#BDBDBD"/>
<path fill-rule="evenodd" clip-rule="evenodd" d="M460.181 488.92H392.272C389.113 488.92 386.553 486.377 386.553 483.239V343.446C386.553 340.309 389.113 337.766 392.272 337.766H460.181C463.34 337.766 465.9 340.309 465.9 343.446V483.239C465.9 486.377 463.34 488.92 460.181 488.92Z" stroke="#1D1C1A" stroke-width="2.16"/>
<mask id="mask0_0_4109" style="mask-type:alpha" maskUnits="userSpaceOnUse" x="385" y="336" width="82" height="154">
<path fill-rule="evenodd" clip-rule="evenodd" d="M385.466 490H466.987V336.686H385.466V490Z" fill="white"/>
</mask>
<g mask="url(#mask0_0_4109)">
<path fill-rule="evenodd" clip-rule="evenodd" d="M389.943 474.884H461.681V353.961H389.943V474.884Z" fill="#FDB515"/>
<path fill-rule="evenodd" clip-rule="evenodd" d="M430.688 376.85H395.904C395.604 376.85 395.361 376.668 395.361 376.445V374.016C395.361 373.792 395.604 373.611 395.904 373.611H430.688C430.988 373.611 431.232 373.792 431.232 374.016V376.445C431.232 376.668 430.988 376.85 430.688 376.85Z" fill="white"/>
<path fill-rule="evenodd" clip-rule="evenodd" d="M401.973 385.082C401.973 386.896 400.492 388.366 398.666 388.366C396.841 388.366 395.36 386.896 395.36 385.082C395.36 383.269 396.841 381.798 398.666 381.798C400.492 381.798 401.973 383.269 401.973 385.082Z" fill="white"/>
<path fill-rule="evenodd" clip-rule="evenodd" d="M423.422 383.524H404.889C404.729 383.524 404.6 383.427 404.6 383.308V382.014C404.6 381.895 404.729 381.798 404.889 381.798H423.422C423.582 381.798 423.712 381.895 423.712 382.014V383.308C423.712 383.427 423.582 383.524 423.422 383.524Z" fill="white"/>
<path fill-rule="evenodd" clip-rule="evenodd" d="M426.14 386.594H404.889C404.729 386.594 404.6 386.527 404.6 386.443V385.537C404.6 385.454 404.729 385.386 404.889 385.386H426.14C426.3 385.386 426.429 385.454 426.429 385.537V386.443C426.429 386.527 426.3 386.594 426.14 386.594Z" fill="white"/>
<path fill-rule="evenodd" clip-rule="evenodd" d="M433.249 386.594H427.761C427.601 386.594 427.471 386.527 427.471 386.443V385.537C427.471 385.454 427.601 385.386 427.761 385.386H433.249C433.409 385.386 433.539 385.454 433.539 385.537V386.443C433.539 386.527 433.409 386.594 433.249 386.594Z" fill="white"/>
<path fill-rule="evenodd" clip-rule="evenodd" d="M439.726 386.594H434.78C434.621 386.594 434.491 386.527 434.491 386.443V385.537C434.491 385.454 434.621 385.386 434.78 385.386H439.726C439.885 385.386 440.015 385.454 440.015 385.537V386.443C440.015 386.527 439.885 386.594 439.726 386.594Z" fill="white"/>
<path fill-rule="evenodd" clip-rule="evenodd" d="M428.314 389.616H404.889C404.729 389.616 404.6 389.549 404.6 389.465V388.559C404.6 388.476 404.729 388.408 404.889 388.408H428.314C428.474 388.408 428.603 388.476 428.603 388.559V389.465C428.603 389.549 428.474 389.616 428.314 389.616Z" fill="white"/>
<path fill-rule="evenodd" clip-rule="evenodd" d="M401.973 435.827C401.973 437.641 400.492 439.111 398.666 439.111C396.841 439.111 395.36 437.641 395.36 435.827C395.36 434.013 396.841 432.543 398.666 432.543C400.492 432.543 401.973 434.013 401.973 435.827Z" fill="white"/>
<path fill-rule="evenodd" clip-rule="evenodd" d="M428.314 434.269H404.889C404.729 434.269 404.6 434.172 404.6 434.053V432.759C404.6 432.64 404.729 432.543 404.889 432.543H428.314C428.474 432.543 428.603 432.64 428.603 432.759V434.053C428.603 434.172 428.474 434.269 428.314 434.269Z" fill="white"/>
<path fill-rule="evenodd" clip-rule="evenodd" d="M418.531 437.339H404.889C404.729 437.339 404.6 437.271 404.6 437.188V436.282C404.6 436.199 404.729 436.131 404.889 436.131H418.531C418.69 436.131 418.82 436.199 418.82 436.282V437.188C418.82 437.271 418.69 437.339 418.531 437.339Z" fill="white"/>
<path fill-rule="evenodd" clip-rule="evenodd" d="M422.923 437.339H420.695C420.535 437.339 420.406 437.271 420.406 437.188V436.282C420.406 436.199 420.535 436.131 420.695 436.131H422.923C423.083 436.131 423.212 436.199 423.212 436.282V437.188C423.212 437.271 423.083 437.339 422.923 437.339Z" fill="white"/>
<path fill-rule="evenodd" clip-rule="evenodd" d="M435.923 440.361H415.759C415.599 440.361 415.47 440.294 415.47 440.21V439.304C415.47 439.221 415.599 439.153 415.759 439.153H435.923C436.083 439.153 436.212 439.221 436.212 439.304V440.21C436.212 440.294 436.083 440.361 435.923 440.361Z" fill="white"/>
<path fill-rule="evenodd" clip-rule="evenodd" d="M413.639 440.361H404.889C404.729 440.361 404.6 440.294 404.6 440.21V439.304C404.6 439.221 404.729 439.153 404.889 439.153H413.639C413.799 439.153 413.929 439.221 413.929 439.304V440.21C413.929 440.294 413.799 440.361 413.639 440.361Z" fill="white"/>
<path opacity="0.75" fill-rule="evenodd" clip-rule="evenodd" d="M456.247 393.262H395.377C395.257 393.262 395.16 393.165 395.16 393.045C395.16 392.926 395.257 392.829 395.377 392.829H456.247C456.367 392.829 456.464 392.926 456.464 393.045C456.464 393.165 456.367 393.262 456.247 393.262Z" fill="white"/>
<path opacity="0.75" fill-rule="evenodd" clip-rule="evenodd" d="M456.247 444.007H395.377C395.257 444.007 395.16 443.91 395.16 443.79C395.16 443.671 395.257 443.574 395.377 443.574H456.247C456.367 443.574 456.464 443.671 456.464 443.79C456.464 443.91 456.367 444.007 456.247 444.007Z" fill="white"/>
<path opacity="0.75" fill-rule="evenodd" clip-rule="evenodd" d="M456.247 458.474H395.377C395.257 458.474 395.16 458.377 395.16 458.258C395.16 458.138 395.257 458.042 395.377 458.042H456.247C456.367 458.042 456.464 458.138 456.464 458.258C456.464 458.377 456.367 458.474 456.247 458.474Z" fill="white"/>
<path opacity="0.75" fill-rule="evenodd" clip-rule="evenodd" d="M456.247 429.431H395.377C395.257 429.431 395.16 429.334 395.16 429.215C395.16 429.095 395.257 428.998 395.377 428.998H456.247C456.367 428.998 456.464 429.095 456.464 429.215C456.464 429.334 456.367 429.431 456.247 429.431Z" fill="white"/>
<path fill-rule="evenodd" clip-rule="evenodd" d="M401.973 464.87C401.973 466.684 400.492 468.155 398.666 468.155C396.841 468.155 395.36 466.684 395.36 464.87C395.36 463.057 396.841 461.586 398.666 461.586C400.492 461.586 401.973 463.057 401.973 464.87Z" fill="white"/>
<path fill-rule="evenodd" clip-rule="evenodd" d="M428.314 463.312H404.889C404.729 463.312 404.6 463.216 404.6 463.096V461.802C404.6 461.683 404.729 461.586 404.889 461.586H428.314C428.474 461.586 428.603 461.683 428.603 461.802V463.096C428.603 463.216 428.474 463.312 428.314 463.312Z" fill="white"/>
<path fill-rule="evenodd" clip-rule="evenodd" d="M418.531 466.382H404.889C404.729 466.382 404.6 466.315 404.6 466.231V465.325C404.6 465.242 404.729 465.174 404.889 465.174H418.531C418.69 465.174 418.82 465.242 418.82 465.325V466.231C418.82 466.315 418.69 466.382 418.531 466.382Z" fill="white"/>
<path fill-rule="evenodd" clip-rule="evenodd" d="M422.923 466.382H420.695C420.535 466.382 420.406 466.315 420.406 466.231V465.325C420.406 465.242 420.535 465.174 420.695 465.174H422.923C423.083 465.174 423.212 465.242 423.212 465.325V466.231C423.212 466.315 423.083 466.382 422.923 466.382Z" fill="white"/>
<path fill-rule="evenodd" clip-rule="evenodd" d="M435.923 469.405H415.759C415.599 469.405 415.47 469.337 415.47 469.254V468.348C415.47 468.264 415.599 468.197 415.759 468.197H435.923C436.083 468.197 436.212 468.264 436.212 468.348V469.254C436.212 469.337 436.083 469.405 435.923 469.405Z" fill="white"/>
<path fill-rule="evenodd" clip-rule="evenodd" d="M413.639 469.405H404.889C404.729 469.405 404.6 469.337 404.6 469.254V468.348C404.6 468.264 404.729 468.197 404.889 468.197H413.639C413.799 468.197 413.929 468.264 413.929 468.348V469.254C413.929 469.337 413.799 469.405 413.639 469.405Z" fill="white"/>
<path fill-rule="evenodd" clip-rule="evenodd" d="M401.973 399.658C401.973 401.472 400.492 402.942 398.666 402.942C396.841 402.942 395.36 401.472 395.36 399.658C395.36 397.844 396.841 396.374 398.666 396.374C400.492 396.374 401.973 397.844 401.973 399.658Z" fill="white"/>
<path fill-rule="evenodd" clip-rule="evenodd" d="M420.161 398.1H404.889C404.729 398.1 404.6 398.003 404.6 397.884V396.59C404.6 396.471 404.729 396.374 404.889 396.374H420.161C420.321 396.374 420.451 396.471 420.451 396.59V397.884C420.451 398.003 420.321 398.1 420.161 398.1Z" fill="white"/>
<path fill-rule="evenodd" clip-rule="evenodd" d="M416.9 401.17H404.889C404.729 401.17 404.6 401.102 404.6 401.019V400.113C404.6 400.029 404.729 399.962 404.889 399.962H416.9C417.06 399.962 417.19 400.029 417.19 400.113V401.019C417.19 401.102 417.06 401.17 416.9 401.17Z" fill="white"/>
<path fill-rule="evenodd" clip-rule="evenodd" d="M445.949 425.705H405.188C404.888 425.705 404.645 425.463 404.645 425.165V403.032C404.645 402.734 404.888 402.492 405.188 402.492H445.949C446.249 402.492 446.492 402.734 446.492 403.032V425.165C446.492 425.463 446.249 425.705 445.949 425.705Z" fill="white"/>
<path fill-rule="evenodd" clip-rule="evenodd" d="M401.973 450.295C401.973 452.109 400.492 453.579 398.666 453.579C396.841 453.579 395.36 452.109 395.36 450.295C395.36 448.481 396.841 447.011 398.666 447.011C400.492 447.011 401.973 448.481 401.973 450.295Z" fill="white"/>
<path fill-rule="evenodd" clip-rule="evenodd" d="M423.422 448.737H404.889C404.729 448.737 404.6 448.64 404.6 448.521V447.227C404.6 447.107 404.729 447.011 404.889 447.011H423.422C423.582 447.011 423.712 447.107 423.712 447.227V448.521C423.712 448.64 423.582 448.737 423.422 448.737Z" fill="white"/>
<path fill-rule="evenodd" clip-rule="evenodd" d="M426.14 451.807H404.889C404.729 451.807 404.6 451.739 404.6 451.656V450.75C404.6 450.666 404.729 450.599 404.889 450.599H426.14C426.3 450.599 426.429 450.666 426.429 450.75V451.656C426.429 451.739 426.3 451.807 426.14 451.807Z" fill="white"/>
<path fill-rule="evenodd" clip-rule="evenodd" d="M433.249 451.807H427.761C427.601 451.807 427.471 451.739 427.471 451.656V450.75C427.471 450.666 427.601 450.599 427.761 450.599H433.249C433.409 450.599 433.539 450.666 433.539 450.75V451.656C433.539 451.739 433.409 451.807 433.249 451.807Z" fill="white"/>
<path fill-rule="evenodd" clip-rule="evenodd" d="M439.726 451.807H434.78C434.621 451.807 434.491 451.739 434.491 451.656V450.75C434.491 450.666 434.621 450.599 434.78 450.599H439.726C439.885 450.599 440.015 450.666 440.015 450.75V451.656C440.015 451.739 439.885 451.807 439.726 451.807Z" fill="white"/>
<path fill-rule="evenodd" clip-rule="evenodd" d="M428.314 454.829H404.889C404.729 454.829 404.6 454.761 404.6 454.678V453.772C404.6 453.688 404.729 453.621 404.889 453.621H428.314C428.474 453.621 428.603 453.688 428.603 453.772V454.678C428.603 454.761 428.474 454.829 428.314 454.829Z" fill="white"/>
<path d="M411.682 345.863H445.377" stroke="#868A96" stroke-width="1.08" stroke-linecap="round" stroke-linejoin="round"/>
<path d="M406.247 345.863H407.334" stroke="#868A96" stroke-width="1.08" stroke-linecap="round" stroke-linejoin="round"/>
<path fill-rule="evenodd" clip-rule="evenodd" d="M389.943 369.616H461.681V353.961H389.943V369.616Z" fill="#1D1C1A"/>
<path fill-rule="evenodd" clip-rule="evenodd" d="M412.209 365.162H395.904C395.604 365.162 395.36 364.98 395.36 364.757V360.168C395.36 359.944 395.604 359.763 395.904 359.763H412.209C412.509 359.763 412.752 359.944 412.752 360.168V364.757C412.752 364.98 412.509 365.162 412.209 365.162Z" fill="white"/>
<path fill-rule="evenodd" clip-rule="evenodd" d="M434.763 365.162H418.459C418.159 365.162 417.915 364.98 417.915 364.757V360.168C417.915 359.944 418.159 359.763 418.459 359.763H434.763C435.064 359.763 435.307 359.944 435.307 360.168V364.757C435.307 364.98 435.064 365.162 434.763 365.162Z" fill="white"/>
<path fill-rule="evenodd" clip-rule="evenodd" d="M449.181 361.087H455.921V360.007H449.181V361.087Z" fill="white"/>
<path fill-rule="evenodd" clip-rule="evenodd" d="M449.181 363.03H455.921V361.842H449.181V363.03Z" fill="white"/>
<path fill-rule="evenodd" clip-rule="evenodd" d="M449.181 364.865H455.921V363.786H449.181V364.865Z" fill="white"/>
<path d="M417.225 481.794H435.269" stroke="#868A96" stroke-width="1.08" stroke-linecap="round" stroke-linejoin="round"/>
</g>
<rect x="391.504" y="368.751" width="68.4378" height="2.00411" fill="url(#paint0_linear_0_4109)"/>
<path fill-rule="evenodd" clip-rule="evenodd" d="M389.943 474.884H461.681V353.961H389.943V474.884ZM392.116 472.725H459.507V356.12H392.116V472.725Z" fill="#1D1C1A"/>
<path fill-rule="evenodd" clip-rule="evenodd" d="M1.11101 29.1425C0.804265 29.1425 0.555511 28.8954 0.555511 28.5906V25.2795C0.555511 24.9748 0.804265 24.7277 1.11101 24.7277H3.33302C3.63977 24.7277 3.88852 24.9748 3.88852 25.2795V28.5906C3.88852 28.8954 3.63977 29.1425 3.33302 29.1425H1.11101Z" fill="#D1C4E9"/>
<path fill-rule="evenodd" clip-rule="evenodd" d="M1.11101 29.1425H3.33302C3.63977 29.1425 3.88852 28.8954 3.88852 28.5906V25.2795C3.88852 24.9748 3.63977 24.7277 3.33302 24.7277H1.11101C0.804265 24.7277 0.555511 24.9748 0.555511 25.2795V28.5906C0.555511 28.8954 0.804265 29.1425 1.11101 29.1425Z" stroke="#1D1C1A" stroke-width="1.1039"/>
<path fill-rule="evenodd" clip-rule="evenodd" d="M1.11101 46.8019H3.33302C3.63977 46.8019 3.88852 46.5548 3.88852 46.25V36.3166C3.88852 36.0119 3.63977 35.7648 3.33302 35.7648H1.11101C0.804265 35.7648 0.555511 36.0119 0.555511 36.3166V46.25C0.555511 46.5548 0.804265 46.8019 1.11101 46.8019Z" fill="#D1C4E9"/>
<path fill-rule="evenodd" clip-rule="evenodd" d="M1.11101 46.8019H3.33302C3.63977 46.8019 3.88852 46.5548 3.88852 46.25V36.3166C3.88852 36.0119 3.63977 35.7648 3.33302 35.7648H1.11101C0.804265 35.7648 0.555511 36.0119 0.555511 36.3166V46.25C0.555511 46.5548 0.804265 46.8019 1.11101 46.8019Z" stroke="#1D1C1A" stroke-width="1.1039"/>
<path fill-rule="evenodd" clip-rule="evenodd" d="M84.4362 46.802H82.2142C81.9074 46.802 81.6587 46.5549 81.6587 46.2501V38.5241C81.6587 38.2194 81.9074 37.9723 82.2142 37.9723H84.4362C84.7429 37.9723 84.9917 38.2194 84.9917 38.5241V46.2501C84.9917 46.5549 84.7429 46.802 84.4362 46.802Z" fill="#D1C4E9"/>
<path fill-rule="evenodd" clip-rule="evenodd" d="M84.4362 46.802H82.2142C81.9074 46.802 81.6587 46.5549 81.6587 46.2501V38.5241C81.6587 38.2194 81.9074 37.9723 82.2142 37.9723H84.4362C84.7429 37.9723 84.9917 38.2194 84.9917 38.5241V46.2501C84.9917 46.5549 84.7429 46.802 84.4362 46.802Z" stroke="#1D1C1A" stroke-width="1.1039"/>
<path fill-rule="evenodd" clip-rule="evenodd" d="M1.11101 49.0094H3.33302C3.63977 49.0094 3.88852 49.2565 3.88852 49.5613V58.3909C3.88852 58.6957 3.63977 58.9428 3.33302 58.9428H1.11101C0.804265 58.9428 0.555511 58.6957 0.555511 58.3909V49.5613C0.555511 49.2565 0.804265 49.0094 1.11101 49.0094Z" fill="#D1C4E9"/>
<path fill-rule="evenodd" clip-rule="evenodd" d="M1.11101 49.0094H3.33302C3.63977 49.0094 3.88852 49.2565 3.88852 49.5613V58.3909C3.88852 58.6957 3.63977 58.9428 3.33302 58.9428H1.11101C0.804265 58.9428 0.555511 58.6957 0.555511 58.3909V49.5613C0.555511 49.2565 0.804265 49.0094 1.11101 49.0094Z" stroke="#1D1C1A" stroke-width="1.1039"/>
<path fill-rule="evenodd" clip-rule="evenodd" d="M69.9789 156.014H15.8647C9.38332 156.014 4.12927 150.633 4.12927 143.994V17.9295C4.12927 11.291 9.38332 5.90942 15.8647 5.90942H69.9789C76.4601 5.90942 81.7143 11.291 81.7143 17.9295V143.994C81.7143 150.633 76.4601 156.014 69.9789 156.014Z" fill="#BDBDBD"/>
<path fill-rule="evenodd" clip-rule="evenodd" d="M69.9789 156.014H15.8647C9.38332 156.014 4.12927 150.633 4.12927 143.994V17.9295C4.12927 11.291 9.38332 5.90942 15.8647 5.90942H69.9789C76.4601 5.90942 81.7143 11.291 81.7143 17.9295V143.994C81.7143 150.633 76.4601 156.014 69.9789 156.014Z" stroke="#1D1C1A" stroke-width="2.20779"/>
<path d="M33.5523 18.4917H56.2167" stroke="#868A96" stroke-width="1.1039" stroke-linecap="round" stroke-linejoin="round"/>
<path d="M44.5512 18.4917H45.2178" stroke="#868A96" stroke-width="1.1039" stroke-linecap="round" stroke-linejoin="round"/>
<path d="M29.6638 18.4917H30.7748" stroke="#868A96" stroke-width="1.1039" stroke-linecap="round" stroke-linejoin="round"/>
<path d="M42.5514 13.9666H43.1069" stroke="#868A96" stroke-width="1.1039" stroke-linecap="round" stroke-linejoin="round"/>
<path fill-rule="evenodd" clip-rule="evenodd" d="M76.6592 135.099H8.88802C8.58127 135.099 8.33252 134.852 8.33252 134.547V25.2795C8.33252 24.9748 8.58127 24.7277 8.88802 24.7277H76.6592C76.9659 24.7277 77.2147 24.9748 77.2147 25.2795V134.547C77.2147 134.852 76.9659 135.099 76.6592 135.099Z" fill="#FDB515"/>
<path fill-rule="evenodd" clip-rule="evenodd" d="M47.3554 141.148C52.2204 147.607 44.9212 154.859 38.4193 150.025C38.3754 149.993 38.3357 149.953 38.3029 149.91C33.4379 143.451 40.7372 136.199 47.239 141.032C47.2829 141.065 47.3226 141.104 47.3554 141.148Z" fill="#757575"/>
<path fill-rule="evenodd" clip-rule="evenodd" d="M47.9143 46.9958H12.3607C12.0538 46.9958 11.8052 46.8105 11.8052 46.5819V44.0986C11.8052 43.87 12.0538 43.6847 12.3607 43.6847H47.9143C48.2211 43.6847 48.4699 43.87 48.4699 44.0986V46.5819C48.4699 46.8105 48.2211 46.9958 47.9143 46.9958Z" fill="white"/>
<path fill-rule="evenodd" clip-rule="evenodd" d="M18.5636 55.4116C18.5636 57.2657 17.0506 58.7688 15.1842 58.7688C13.318 58.7688 11.805 57.2657 11.805 55.4116C11.805 53.5575 13.318 52.0544 15.1842 52.0544C17.0506 52.0544 18.5636 53.5575 18.5636 55.4116Z" fill="white"/>
<path fill-rule="evenodd" clip-rule="evenodd" d="M40.4877 53.8186H21.5446C21.3812 53.8186 21.2487 53.7198 21.2487 53.5981V52.275C21.2487 52.1532 21.3812 52.0544 21.5446 52.0544H40.4877C40.6511 52.0544 40.7836 52.1532 40.7836 52.275V53.5981C40.7836 53.7198 40.6511 53.8186 40.4877 53.8186Z" fill="white"/>
<path fill-rule="evenodd" clip-rule="evenodd" d="M43.2653 56.9571H21.5447C21.3811 56.9571 21.2487 56.888 21.2487 56.8027V55.8766C21.2487 55.7913 21.3811 55.7222 21.5447 55.7222H43.2653C43.4288 55.7222 43.5613 55.7913 43.5613 55.8766V56.8027C43.5613 56.888 43.4288 56.9571 43.2653 56.9571Z" fill="white"/>
<path fill-rule="evenodd" clip-rule="evenodd" d="M50.5321 56.9571H44.922C44.7586 56.9571 44.626 56.888 44.626 56.8027V55.8766C44.626 55.7913 44.7586 55.7222 44.922 55.7222H50.5321C50.6956 55.7222 50.8281 55.7913 50.8281 55.8766V56.8027C50.8281 56.888 50.6956 56.9571 50.5321 56.9571Z" fill="white"/>
<path fill-rule="evenodd" clip-rule="evenodd" d="M57.1518 56.9571H52.0972C51.9338 56.9571 51.8012 56.888 51.8012 56.8027V55.8766C51.8012 55.7913 51.9338 55.7222 52.0972 55.7222H57.1518C57.3153 55.7222 57.4478 55.7913 57.4478 55.8766V56.8027C57.4478 56.888 57.3153 56.9571 57.1518 56.9571Z" fill="white"/>
<path fill-rule="evenodd" clip-rule="evenodd" d="M45.4875 60.0466H21.5447C21.3812 60.0466 21.2487 59.9775 21.2487 59.8922V58.9661C21.2487 58.8807 21.3812 58.8116 21.5447 58.8116H45.4875C45.6509 58.8116 45.7835 58.8807 45.7835 58.9661V59.8922C45.7835 59.9775 45.6509 60.0466 45.4875 60.0466Z" fill="white"/>
<path fill-rule="evenodd" clip-rule="evenodd" d="M18.5636 107.286C18.5636 109.14 17.0506 110.643 15.1842 110.643C13.318 110.643 11.805 109.14 11.805 107.286C11.805 105.432 13.318 103.929 15.1842 103.929C17.0506 103.929 18.5636 105.432 18.5636 107.286Z" fill="white"/>
<path fill-rule="evenodd" clip-rule="evenodd" d="M45.4875 105.693H21.5447C21.3812 105.693 21.2487 105.594 21.2487 105.473V104.149C21.2487 104.028 21.3812 103.929 21.5447 103.929H45.4875C45.6509 103.929 45.7835 104.028 45.7835 104.149V105.473C45.7835 105.594 45.6509 105.693 45.4875 105.693Z" fill="white"/>
<path fill-rule="evenodd" clip-rule="evenodd" d="M35.4878 108.831H21.5446C21.3812 108.831 21.2487 108.762 21.2487 108.677V107.751C21.2487 107.666 21.3812 107.597 21.5446 107.597H35.4878C35.6513 107.597 35.7838 107.666 35.7838 107.751V108.677C35.7838 108.762 35.6513 108.831 35.4878 108.831Z" fill="white"/>
<path fill-rule="evenodd" clip-rule="evenodd" d="M39.9774 108.831H37.7005C37.5371 108.831 37.4045 108.762 37.4045 108.677V107.751C37.4045 107.666 37.5371 107.597 37.7005 107.597H39.9774C40.1408 107.597 40.2734 107.666 40.2734 107.751V108.677C40.2734 108.762 40.1408 108.831 39.9774 108.831Z" fill="white"/>
<path fill-rule="evenodd" clip-rule="evenodd" d="M53.265 111.921H32.6553C32.4919 111.921 32.3594 111.852 32.3594 111.767V110.841C32.3594 110.755 32.4919 110.686 32.6553 110.686H53.265C53.4284 110.686 53.561 110.755 53.561 110.841V111.767C53.561 111.852 53.4284 111.921 53.265 111.921Z" fill="white"/>
<path fill-rule="evenodd" clip-rule="evenodd" d="M30.488 111.921H21.5447C21.3812 111.921 21.2487 111.852 21.2487 111.767V110.841C21.2487 110.755 21.3812 110.686 21.5447 110.686H30.488C30.6514 110.686 30.784 110.755 30.784 110.841V111.767C30.784 111.852 30.6514 111.921 30.488 111.921Z" fill="white"/>
<path opacity="0.75" fill-rule="evenodd" clip-rule="evenodd" d="M73.9928 63.7448H11.7766C11.654 63.7448 11.5544 63.6457 11.5544 63.5236C11.5544 63.4015 11.654 63.3024 11.7766 63.3024H73.9928C74.1155 63.3024 74.215 63.4015 74.215 63.5236C74.215 63.6457 74.1155 63.7448 73.9928 63.7448Z" fill="white"/>
<path opacity="0.75" fill-rule="evenodd" clip-rule="evenodd" d="M73.9928 115.619H11.7766C11.654 115.619 11.5544 115.52 11.5544 115.398C11.5544 115.276 11.654 115.177 11.7766 115.177H73.9928C74.1155 115.177 74.215 115.276 74.215 115.398C74.215 115.52 74.1155 115.619 73.9928 115.619Z" fill="white"/>
<path opacity="0.75" fill-rule="evenodd" clip-rule="evenodd" d="M73.9928 100.719H11.7766C11.654 100.719 11.5544 100.62 11.5544 100.498C11.5544 100.376 11.654 100.277 11.7766 100.277H73.9928C74.1155 100.277 74.215 100.376 74.215 100.498C74.215 100.62 74.1155 100.719 73.9928 100.719Z" fill="white"/>
<path fill-rule="evenodd" clip-rule="evenodd" d="M18.5636 70.3117C18.5636 72.1659 17.0506 73.6689 15.1842 73.6689C13.318 73.6689 11.805 72.1659 11.805 70.3117C11.805 68.4576 13.318 66.9546 15.1842 66.9546C17.0506 66.9546 18.5636 68.4576 18.5636 70.3117Z" fill="white"/>
<path fill-rule="evenodd" clip-rule="evenodd" d="M37.1544 68.7188H21.5446C21.3812 68.7188 21.2487 68.62 21.2487 68.4982V67.1751C21.2487 67.0534 21.3812 66.9546 21.5446 66.9546H37.1544C37.3179 66.9546 37.4504 67.0534 37.4504 67.1751V68.4982C37.4504 68.62 37.3179 68.7188 37.1544 68.7188Z" fill="white"/>
<path fill-rule="evenodd" clip-rule="evenodd" d="M33.8212 71.8573H21.5446C21.3812 71.8573 21.2487 71.7882 21.2487 71.7028V70.7767C21.2487 70.6914 21.3812 70.6223 21.5446 70.6223H33.8212C33.9846 70.6223 34.1172 70.6914 34.1172 70.7767V71.7028C34.1172 71.7882 33.9846 71.8573 33.8212 71.8573Z" fill="white"/>
<path fill-rule="evenodd" clip-rule="evenodd" d="M63.5129 96.9388H21.8503C21.5436 96.9388 21.2948 96.6917 21.2948 96.3869V73.7608C21.2948 73.4561 21.5436 73.209 21.8503 73.209H63.5129C63.8197 73.209 64.0684 73.4561 64.0684 73.7608V96.3869C64.0684 96.6917 63.8197 96.9388 63.5129 96.9388Z" fill="white"/>
<path fill-rule="evenodd" clip-rule="evenodd" d="M18.5636 122.076C18.5636 123.93 17.0506 125.433 15.1842 125.433C13.318 125.433 11.805 123.93 11.805 122.076C11.805 120.222 13.318 118.719 15.1842 118.719C17.0506 118.719 18.5636 120.222 18.5636 122.076Z" fill="white"/>
<path fill-rule="evenodd" clip-rule="evenodd" d="M40.4877 120.483H21.5446C21.3812 120.483 21.2487 120.384 21.2487 120.262V118.939C21.2487 118.817 21.3812 118.719 21.5446 118.719H40.4877C40.6511 118.719 40.7836 118.817 40.7836 118.939V120.262C40.7836 120.384 40.6511 120.483 40.4877 120.483Z" fill="white"/>
<path fill-rule="evenodd" clip-rule="evenodd" d="M43.2653 123.621H21.5447C21.3811 123.621 21.2487 123.552 21.2487 123.467V122.541C21.2487 122.455 21.3811 122.386 21.5447 122.386H43.2653C43.4288 122.386 43.5613 122.455 43.5613 122.541V123.467C43.5613 123.552 43.4288 123.621 43.2653 123.621Z" fill="white"/>
<path fill-rule="evenodd" clip-rule="evenodd" d="M50.5321 123.621H44.922C44.7586 123.621 44.626 123.552 44.626 123.467V122.541C44.626 122.455 44.7586 122.386 44.922 122.386H50.5321C50.6956 122.386 50.8281 122.455 50.8281 122.541V123.467C50.8281 123.552 50.6956 123.621 50.5321 123.621Z" fill="white"/>
<path fill-rule="evenodd" clip-rule="evenodd" d="M57.1518 123.621H52.0972C51.9338 123.621 51.8012 123.552 51.8012 123.467V122.541C51.8012 122.455 51.9338 122.386 52.0972 122.386H57.1518C57.3153 122.386 57.4478 122.455 57.4478 122.541V123.467C57.4478 123.552 57.3153 123.621 57.1518 123.621Z" fill="white"/>
<path fill-rule="evenodd" clip-rule="evenodd" d="M45.4875 126.711H21.5447C21.3812 126.711 21.2487 126.642 21.2487 126.556V125.63C21.2487 125.545 21.3812 125.476 21.5447 125.476H45.4875C45.6509 125.476 45.7835 125.545 45.7835 125.63V126.556C45.7835 126.642 45.6509 126.711 45.4875 126.711Z" fill="white"/>
<mask id="mask1_0_4109" style="mask-type:alpha" maskUnits="userSpaceOnUse" x="0" y="4" width="86" height="154">
<path fill-rule="evenodd" clip-rule="evenodd" d="M0 157.118H85.5472V4.80573H0V157.118Z" fill="white"/>
</mask>
<g mask="url(#mask1_0_4109)">
<path fill-rule="evenodd" clip-rule="evenodd" d="M8.88803 39.2415H76.437V24.5621H8.88803V39.2415Z" fill="#1D1C1A"/>
<path fill-rule="evenodd" clip-rule="evenodd" d="M29.8704 35.0744H14.5382C14.2559 35.0744 14.0271 34.9039 14.0271 34.6936V30.378C14.0271 30.1676 14.2559 29.9972 14.5382 29.9972H29.8704C30.1526 29.9972 30.3814 30.1676 30.3814 30.378V34.6936C30.3814 34.9039 30.1526 35.0744 29.8704 35.0744Z" fill="white"/>
<path fill-rule="evenodd" clip-rule="evenodd" d="M51.08 35.0744H35.7478C35.4655 35.0744 35.2368 34.9039 35.2368 34.6936V30.378C35.2368 30.1676 35.4655 29.9972 35.7478 29.9972H51.08C51.3622 29.9972 51.5911 30.1676 51.5911 30.378V34.6936C51.5911 34.9039 51.3622 35.0744 51.08 35.0744Z" fill="white"/>
<path fill-rule="evenodd" clip-rule="evenodd" d="M64.6604 31.2948H70.9931V30.191H64.6604V31.2948Z" fill="white"/>
<path fill-rule="evenodd" clip-rule="evenodd" d="M64.6604 33.0607H70.9931V31.957H64.6604V33.0607Z" fill="white"/>
<path fill-rule="evenodd" clip-rule="evenodd" d="M64.6604 34.8267H70.9931V33.8334H64.6604V34.8267Z" fill="white"/>
</g>
<path fill-rule="evenodd" clip-rule="evenodd" d="M8.88803 41.3385H76.4369V39.131H8.88803V41.3385Z" fill="url(#paint1_linear_0_4109)"/>
<path fill-rule="evenodd" clip-rule="evenodd" d="M76.6592 135.099H8.88802C8.58127 135.099 8.33252 134.852 8.33252 134.547V25.2795C8.33252 24.9748 8.58127 24.7277 8.88802 24.7277H76.6592C76.9659 24.7277 77.2147 24.9748 77.2147 25.2795V134.547C77.2147 134.852 76.9659 135.099 76.6592 135.099Z" stroke="#1D1C1A" stroke-width="2.20779"/>
<path fill-rule="evenodd" clip-rule="evenodd" d="M9.14981 433.765V310.435C9.14981 302.795 15.576 296.601 23.5033 296.601H221.968C229.895 296.601 236.321 302.795 236.321 310.435V433.765C236.321 441.405 229.895 447.599 221.968 447.599H23.5033C15.576 447.599 9.14981 441.405 9.14981 433.765Z" fill="#BDBDBD"/>
<path fill-rule="evenodd" clip-rule="evenodd" d="M9.14981 433.765V310.435C9.14981 302.795 15.576 296.601 23.5033 296.601H221.968C229.895 296.601 236.321 302.795 236.321 310.435V433.765C236.321 441.405 229.895 447.599 221.968 447.599H23.5033C15.576 447.599 9.14981 441.405 9.14981 433.765Z" stroke="#1D1C1A" stroke-width="2.18258"/>
<path fill-rule="evenodd" clip-rule="evenodd" d="M29.2982 377.261C21.5851 382.996 12.9262 374.392 18.6975 366.727C18.7364 366.675 18.7835 366.628 18.8355 366.589C26.5486 360.854 35.2076 369.459 29.4362 377.124C29.3973 377.176 29.3502 377.222 29.2982 377.261Z" fill="#757575"/>
<mask id="mask2_0_4109" style="mask-type:alpha" maskUnits="userSpaceOnUse" x="8" y="295" width="230" height="154">
<path fill-rule="evenodd" clip-rule="evenodd" d="M8.05151 448.691H237.419V295.509H8.05151V448.691Z" fill="white"/>
</mask>
<g mask="url(#mask2_0_4109)">
<path fill-rule="evenodd" clip-rule="evenodd" d="M168.6 434.941H221.254V308.974H168.6V434.941Z" fill="#1D1C1A"/>
<path fill-rule="evenodd" clip-rule="evenodd" d="M168.6 434.941H221.254V418.576H168.6V434.941Z" fill="#BDBDBD"/>
<path fill-rule="evenodd" clip-rule="evenodd" d="M190.331 319.147H174.689C174.234 319.147 173.865 318.873 173.865 318.534V314.852C173.865 314.513 174.234 314.239 174.689 314.239H190.331C190.786 314.239 191.154 314.513 191.154 314.852V318.534C191.154 318.873 190.786 319.147 190.331 319.147Z" fill="#BDBDBD"/>
<path fill-rule="evenodd" clip-rule="evenodd" d="M202.954 319.147H193.075C192.621 319.147 192.252 318.873 192.252 318.534V314.852C192.252 314.513 192.621 314.239 193.075 314.239H202.954C203.409 314.239 203.778 314.513 203.778 314.852V318.534C203.778 318.873 203.409 319.147 202.954 319.147Z" fill="#BDBDBD"/>
<path fill-rule="evenodd" clip-rule="evenodd" d="M180.863 331.338H174.277C173.822 331.338 173.454 331.045 173.454 330.683V328.065C173.454 327.704 173.822 327.411 174.277 327.411H180.863C181.318 327.411 181.687 327.704 181.687 328.065V330.683C181.687 331.045 181.318 331.338 180.863 331.338Z" fill="#BDBDBD"/>
<path fill-rule="evenodd" clip-rule="evenodd" d="M198.152 331.338H184.98C184.525 331.338 184.156 331.045 184.156 330.683V328.065C184.156 327.704 184.525 327.411 184.98 327.411H198.152C198.607 327.411 198.976 327.704 198.976 328.065V330.683C198.976 331.045 198.607 331.338 198.152 331.338Z" fill="#BDBDBD"/>
<path fill-rule="evenodd" clip-rule="evenodd" d="M203.916 339.792H174.277C173.822 339.792 173.454 339.499 173.454 339.137V336.519C173.454 336.158 173.822 335.865 174.277 335.865H203.916C204.371 335.865 204.74 336.158 204.74 336.519V339.137C204.74 339.499 204.371 339.792 203.916 339.792Z" fill="#BDBDBD"/>
<path fill-rule="evenodd" clip-rule="evenodd" d="M200.623 356.155H174.277C173.822 356.155 173.454 355.862 173.454 355.5V352.882C173.454 352.521 173.822 352.228 174.277 352.228H200.623C201.078 352.228 201.446 352.521 201.446 352.882V355.5C201.446 355.862 201.078 356.155 200.623 356.155Z" fill="#BDBDBD"/>
<path fill-rule="evenodd" clip-rule="evenodd" d="M203.916 364.336H174.277C173.822 364.336 173.454 364.043 173.454 363.682V361.064C173.454 360.702 173.822 360.409 174.277 360.409H203.916C204.371 360.409 204.74 360.702 204.74 361.064V363.682C204.74 364.043 204.371 364.336 203.916 364.336Z" fill="#BDBDBD"/>
<path fill-rule="evenodd" clip-rule="evenodd" d="M190.743 372.518H174.277C173.822 372.518 173.454 372.225 173.454 371.863V369.245C173.454 368.884 173.822 368.591 174.277 368.591H190.743C191.198 368.591 191.566 368.884 191.566 369.245V371.863C191.566 372.225 191.198 372.518 190.743 372.518Z" fill="#BDBDBD"/>
<path fill-rule="evenodd" clip-rule="evenodd" d="M197.466 372.518H194.173C193.718 372.518 193.35 372.225 193.35 371.863V369.245C193.35 368.884 193.718 368.591 194.173 368.591H197.466C197.92 368.591 198.289 368.884 198.289 369.245V371.863C198.289 372.225 197.92 372.518 197.466 372.518Z" fill="#BDBDBD"/>
<path fill-rule="evenodd" clip-rule="evenodd" d="M184.156 380.699H174.277C173.822 380.699 173.454 380.406 173.454 380.045V377.426C173.454 377.065 173.822 376.772 174.277 376.772H184.156C184.611 376.772 184.979 377.065 184.979 377.426V380.045C184.979 380.406 184.611 380.699 184.156 380.699Z" fill="#BDBDBD"/>
<path fill-rule="evenodd" clip-rule="evenodd" d="M201.583 380.699H188.41C187.955 380.699 187.587 380.406 187.587 380.045V377.426C187.587 377.065 187.955 376.772 188.41 376.772H201.583C202.037 376.772 202.406 377.065 202.406 377.426V380.045C202.406 380.406 202.037 380.699 201.583 380.699Z" fill="#BDBDBD"/>
<path fill-rule="evenodd" clip-rule="evenodd" d="M203.916 388.88H174.277C173.822 388.88 173.454 388.587 173.454 388.226V385.608C173.454 385.246 173.822 384.953 174.277 384.953H203.916C204.371 384.953 204.74 385.246 204.74 385.608V388.226C204.74 388.587 204.371 388.88 203.916 388.88Z" fill="#BDBDBD"/>
<path fill-rule="evenodd" clip-rule="evenodd" d="M203.916 397.062H174.277C173.822 397.062 173.454 396.769 173.454 396.407V393.789C173.454 393.428 173.822 393.135 174.277 393.135H203.916C204.371 393.135 204.74 393.428 204.74 393.789V396.407C204.74 396.769 204.371 397.062 203.916 397.062Z" fill="#BDBDBD"/>
<path fill-rule="evenodd" clip-rule="evenodd" d="M170.49 337.828C170.49 338.913 169.605 339.792 168.514 339.792C167.423 339.792 166.538 338.913 166.538 337.828C166.538 336.744 167.423 335.865 168.514 335.865C169.605 335.865 170.49 336.744 170.49 337.828Z" fill="#BDBDBD"/>
<path fill-rule="evenodd" clip-rule="evenodd" d="M170.49 361.555C170.49 362.639 169.605 363.518 168.514 363.518C167.423 363.518 166.538 362.639 166.538 361.555C166.538 360.47 167.423 359.591 168.514 359.591C169.605 359.591 170.49 360.47 170.49 361.555Z" fill="#BDBDBD"/>
<path fill-rule="evenodd" clip-rule="evenodd" d="M170.49 370.554C170.49 371.638 169.605 372.518 168.514 372.518C167.423 372.518 166.538 371.638 166.538 370.554C166.538 369.47 167.423 368.59 168.514 368.59C169.605 368.59 170.49 369.47 170.49 370.554Z" fill="#BDBDBD"/>
<path fill-rule="evenodd" clip-rule="evenodd" d="M221.204 350.1H168.517L168.514 350.097V341.919H221.201L221.204 341.923V350.1Z" fill="#FDB515"/>
<path fill-rule="evenodd" clip-rule="evenodd" d="M203.916 347.973H174.277C173.822 347.973 173.454 347.68 173.454 347.319V344.701C173.454 344.339 173.822 344.046 174.277 344.046H203.916C204.371 344.046 204.74 344.339 204.74 344.701V347.319C204.74 347.68 204.371 347.973 203.916 347.973Z" fill="#1D1C1A"/>
<path fill-rule="evenodd" clip-rule="evenodd" d="M200.622 426.733C200.622 429.896 198.042 432.46 194.859 432.46C191.676 432.46 189.096 429.896 189.096 426.733C189.096 423.57 191.676 421.006 194.859 421.006C198.042 421.006 200.622 423.57 200.622 426.733Z" fill="#1D1C1A"/>
<path fill-rule="evenodd" clip-rule="evenodd" d="M57.225 434.941H168.492V308.974H57.225V434.941Z" fill="#FDB515"/>
<path fill-rule="evenodd" clip-rule="evenodd" d="M118.877 319.147H66.1844C65.7298 319.147 65.3611 318.873 65.3611 318.534V314.852C65.3611 314.513 65.7298 314.239 66.1844 314.239H118.877C119.332 314.239 119.701 314.513 119.701 314.852V318.534C119.701 318.873 119.332 319.147 118.877 319.147Z" fill="white"/>
<path fill-rule="evenodd" clip-rule="evenodd" d="M75.3776 331.624C75.3776 334.373 73.1352 336.601 70.3693 336.601C67.6032 336.601 65.3608 334.373 65.3608 331.624C65.3608 328.875 67.6032 326.647 70.3693 326.647C73.1352 326.647 75.3776 328.875 75.3776 331.624Z" fill="white"/>
<path fill-rule="evenodd" clip-rule="evenodd" d="M107.87 329.262H79.7957C79.5534 329.262 79.3571 329.116 79.3571 328.936V326.974C79.3571 326.793 79.5534 326.647 79.7957 326.647H107.87C108.113 326.647 108.309 326.793 108.309 326.974V328.936C108.309 329.116 108.113 329.262 107.87 329.262Z" fill="white"/>
<path fill-rule="evenodd" clip-rule="evenodd" d="M111.987 333.915H79.7957C79.5535 333.915 79.3571 333.813 79.3571 333.687V332.313C79.3571 332.187 79.5535 332.085 79.7957 332.085H111.987C112.229 332.085 112.426 332.187 112.426 332.313V333.687C112.426 333.813 112.229 333.915 111.987 333.915Z" fill="white"/>
<path fill-rule="evenodd" clip-rule="evenodd" d="M122.757 333.915H114.442C114.2 333.915 114.004 333.813 114.004 333.687V332.313C114.004 332.187 114.2 332.085 114.442 332.085H122.757C122.999 332.085 123.196 332.187 123.196 332.313V333.687C123.196 333.813 122.999 333.915 122.757 333.915Z" fill="white"/>
<path fill-rule="evenodd" clip-rule="evenodd" d="M132.568 333.915H125.077C124.834 333.915 124.638 333.813 124.638 333.687V332.313C124.638 332.187 124.834 332.085 125.077 332.085H132.568C132.81 332.085 133.007 332.187 133.007 332.313V333.687C133.007 333.813 132.81 333.915 132.568 333.915Z" fill="white"/>
<path fill-rule="evenodd" clip-rule="evenodd" d="M115.281 338.496H79.7957C79.5535 338.496 79.3571 338.393 79.3571 338.267V336.894C79.3571 336.767 79.5535 336.665 79.7957 336.665H115.281C115.523 336.665 115.719 336.767 115.719 336.894V338.267C115.719 338.393 115.523 338.496 115.281 338.496Z" fill="white"/>
<path fill-rule="evenodd" clip-rule="evenodd" d="M75.3776 408.529C75.3776 411.278 73.1352 413.506 70.3693 413.506C67.6032 413.506 65.3608 411.278 65.3608 408.529C65.3608 405.781 67.6032 403.552 70.3693 403.552C73.1352 403.552 75.3776 405.781 75.3776 408.529Z" fill="white"/>
<path fill-rule="evenodd" clip-rule="evenodd" d="M115.281 406.168H79.7957C79.5535 406.168 79.3571 406.021 79.3571 405.841V403.879C79.3571 403.699 79.5535 403.552 79.7957 403.552H115.281C115.523 403.552 115.719 403.699 115.719 403.879V405.841C115.719 406.021 115.523 406.168 115.281 406.168Z" fill="white"/>
<path fill-rule="evenodd" clip-rule="evenodd" d="M100.46 410.821H79.7958C79.5535 410.821 79.3571 410.718 79.3571 410.592V409.219C79.3571 409.092 79.5535 408.99 79.7958 408.99H100.46C100.703 408.99 100.899 409.092 100.899 409.219V410.592C100.899 410.718 100.703 410.821 100.46 410.821Z" fill="white"/>
<path fill-rule="evenodd" clip-rule="evenodd" d="M107.114 410.821H103.74C103.497 410.821 103.301 410.718 103.301 410.592V409.219C103.301 409.092 103.497 408.99 103.74 408.99H107.114C107.357 408.99 107.553 409.092 107.553 409.219V410.592C107.553 410.718 107.357 410.821 107.114 410.821Z" fill="white"/>
<path fill-rule="evenodd" clip-rule="evenodd" d="M126.807 415.401H96.2626C96.0203 415.401 95.8239 415.299 95.8239 415.172V413.799C95.8239 413.673 96.0203 413.57 96.2626 413.57H126.807C127.05 413.57 127.246 413.673 127.246 413.799V415.172C127.246 415.299 127.05 415.401 126.807 415.401Z" fill="white"/>
<path fill-rule="evenodd" clip-rule="evenodd" d="M93.0504 415.401H79.7957C79.5535 415.401 79.3571 415.299 79.3571 415.172V413.799C79.3571 413.673 79.5535 413.57 79.7957 413.57H93.0504C93.2926 413.57 93.489 413.673 93.489 413.799V415.172C93.489 415.299 93.2926 415.401 93.0504 415.401Z" fill="white"/>
<path opacity="0.75" fill-rule="evenodd" clip-rule="evenodd" d="M160.583 344.18H65.459C65.2197 344.18 65.0256 343.987 65.0256 343.75C65.0256 343.512 65.2197 343.319 65.459 343.319H160.583C160.822 343.319 161.016 343.512 161.016 343.75C161.016 343.987 160.822 344.18 160.583 344.18Z" fill="white"/>
<path opacity="0.75" fill-rule="evenodd" clip-rule="evenodd" d="M160.258 399.089H65.459C65.2197 399.089 65.0256 398.896 65.0256 398.658C65.0256 398.421 65.2197 398.228 65.459 398.228H160.258C160.497 398.228 160.691 398.421 160.691 398.658C160.691 398.896 160.497 399.089 160.258 399.089Z" fill="white"/>
<path fill-rule="evenodd" clip-rule="evenodd" d="M75.3776 353.714C75.3776 356.463 73.1352 358.691 70.3693 358.691C67.6032 358.691 65.3608 356.463 65.3608 353.714C65.3608 350.965 67.6032 348.737 70.3693 348.737C73.1352 348.737 75.3776 350.965 75.3776 353.714Z" fill="white"/>
<path fill-rule="evenodd" clip-rule="evenodd" d="M102.93 351.352H79.7957C79.5535 351.352 79.3571 351.206 79.3571 351.025V349.064C79.3571 348.883 79.5535 348.737 79.7957 348.737H102.93C103.173 348.737 103.369 348.883 103.369 349.064V351.025C103.369 351.206 103.173 351.352 102.93 351.352Z" fill="white"/>
<path fill-rule="evenodd" clip-rule="evenodd" d="M97.9904 356.005H79.7957C79.5534 356.005 79.357 355.903 79.357 355.776V354.403C79.357 354.277 79.5534 354.174 79.7957 354.174H97.9904C98.2326 354.174 98.4291 354.277 98.4291 354.403V355.776C98.4291 355.903 98.2326 356.005 97.9904 356.005Z" fill="white"/>
<path fill-rule="evenodd" clip-rule="evenodd" d="M141.995 393.189H80.2487C79.794 393.189 79.4254 392.823 79.4254 392.371V358.827C79.4254 358.375 79.794 358.009 80.2487 358.009H141.995C142.45 358.009 142.819 358.375 142.819 358.827V392.371C142.819 392.823 142.45 393.189 141.995 393.189Z" fill="white"/>
<path fill-rule="evenodd" clip-rule="evenodd" d="M145.383 316.693C145.383 318.275 144.093 319.556 142.501 319.556C140.91 319.556 139.62 318.275 139.62 316.693C139.62 315.112 140.91 313.829 142.501 313.829C144.093 313.829 145.383 315.112 145.383 316.693Z" fill="white"/>
<path fill-rule="evenodd" clip-rule="evenodd" d="M152.792 316.693C152.792 318.275 151.502 319.556 149.911 319.556C148.319 319.556 147.029 318.275 147.029 316.693C147.029 315.112 148.319 313.829 149.911 313.829C151.502 313.829 152.792 315.112 152.792 316.693Z" fill="white"/>
<path fill-rule="evenodd" clip-rule="evenodd" d="M160.202 316.693C160.202 318.275 158.912 319.556 157.32 319.556C155.729 319.556 154.439 318.275 154.439 316.693C154.439 315.112 155.729 313.829 157.32 313.829C158.912 313.829 160.202 315.112 160.202 316.693Z" fill="white"/>
<path fill-rule="evenodd" clip-rule="evenodd" d="M159.896 429.188H66.1043C65.7316 429.188 65.4296 428.821 65.4296 428.369V422.642C65.4296 422.191 65.7316 421.824 66.1043 421.824H159.896C160.269 421.824 160.571 422.191 160.571 422.642V428.369C160.571 428.821 160.269 429.188 159.896 429.188Z" fill="white"/>
<path fill-rule="evenodd" clip-rule="evenodd" d="M39.132 434.941H57.225V308.974H39.132V434.941Z" fill="#1D1C1A"/>
<path fill-rule="evenodd" clip-rule="evenodd" d="M54.4523 322.829C54.4523 326.293 51.6264 329.101 48.1404 329.101C44.6544 329.101 41.8286 326.293 41.8286 322.829C41.8286 319.365 44.6544 316.557 48.1404 316.557C51.6264 316.557 54.4523 319.365 54.4523 322.829Z" fill="white"/>
<path fill-rule="evenodd" clip-rule="evenodd" d="M54.4523 346.555C54.4523 350.019 51.6264 352.828 48.1404 352.828C44.6544 352.828 41.8286 350.019 41.8286 346.555C41.8286 343.091 44.6544 340.283 48.1404 340.283C51.6264 340.283 54.4523 343.091 54.4523 346.555Z" fill="#FDB515"/>
<path fill-rule="evenodd" clip-rule="evenodd" d="M54.4523 363.736C54.4523 367.2 51.6264 370.009 48.1404 370.009C44.6544 370.009 41.8286 367.2 41.8286 363.736C41.8286 360.272 44.6544 357.464 48.1404 357.464C51.6264 357.464 54.4523 360.272 54.4523 363.736Z" fill="#FDB515"/>
<path fill-rule="evenodd" clip-rule="evenodd" d="M54.4523 380.917C54.4523 384.381 51.6264 387.19 48.1404 387.19C44.6544 387.19 41.8286 384.381 41.8286 380.917C41.8286 377.453 44.6544 374.645 48.1404 374.645C51.6264 374.645 54.4523 377.453 54.4523 380.917Z" fill="#BDBDBD"/>
<path fill-rule="evenodd" clip-rule="evenodd" d="M54.7332 335.136H41.5155C41.2762 335.136 41.0821 334.944 41.0821 334.706C41.0821 334.468 41.2762 334.275 41.5155 334.275H54.7332C54.9725 334.275 55.1665 334.468 55.1665 334.706C55.1665 334.944 54.9725 335.136 54.7332 335.136Z" fill="#BDBDBD"/>
</g>
<rect x="167.069" y="309.43" width="2.01288" height="125.257" fill="url(#paint2_linear_0_4109)"/>
<rect x="58.3734" y="434.687" width="2.01288" height="125.257" transform="rotate(180 58.3734 434.687)" fill="url(#paint3_linear_0_4109)"/>
<path fill-rule="evenodd" clip-rule="evenodd" d="M39.1034 434.381V309.469C39.1034 309.145 39.4014 308.883 39.769 308.883H219.957C220.324 308.883 220.622 309.145 220.622 309.469V434.381C220.622 434.705 220.324 434.968 219.957 434.968H39.769C39.4014 434.968 39.1034 434.705 39.1034 434.381Z" stroke="#1D1C1A" stroke-width="2.07611"/>
<path fill-rule="evenodd" clip-rule="evenodd" d="M338.487 383.427C337.237 383.427 335.468 381.632 335.468 379.418C335.468 377.205 337.237 375.41 338.487 375.41V383.427Z" fill="#D1C4E9"/>
<path fill-rule="evenodd" clip-rule="evenodd" d="M338.487 383.427C337.237 383.427 335.468 381.632 335.468 379.418C335.468 377.205 337.237 375.41 338.487 375.41V383.427Z" stroke="#1D1C1A" stroke-width="1.1"/>
<path fill-rule="evenodd" clip-rule="evenodd" d="M294.204 362.839H328.926C328.926 360.835 324.235 346.807 322.268 346.807H300.861C298.895 346.807 294.204 360.835 294.204 362.839Z" fill="#BDBDBD"/>
<path fill-rule="evenodd" clip-rule="evenodd" d="M294.204 362.839H328.926C328.926 360.835 324.235 346.807 322.268 346.807H300.861C298.895 346.807 294.204 360.835 294.204 362.839Z" stroke="#1D1C1A" stroke-width="2"/>
<path fill-rule="evenodd" clip-rule="evenodd" d="M322.27 433.985H300.863C298.89 433.985 294.2 418.954 294.2 417.952H328.922C328.922 418.954 324.232 433.985 322.27 433.985Z" fill="#BDBDBD"/>
<path fill-rule="evenodd" clip-rule="evenodd" d="M322.27 433.985H300.863C298.89 433.985 294.2 418.954 294.2 417.952H328.922C328.922 418.954 324.232 433.985 322.27 433.985Z" stroke="#1D1C1A" stroke-width="2"/>
<path fill-rule="evenodd" clip-rule="evenodd" d="M295.21 361.882H328.423C332.591 361.882 335.971 365.247 335.971 369.398V409.981C335.971 414.132 332.591 417.496 328.423 417.496H295.21C291.042 417.496 287.662 414.132 287.662 409.981V369.398C287.662 365.247 291.042 361.882 295.21 361.882Z" fill="#BDBDBD"/>
<path fill-rule="evenodd" clip-rule="evenodd" d="M295.21 361.882H328.423C332.591 361.882 335.971 365.247 335.971 369.398V409.981C335.971 414.132 332.591 417.496 328.423 417.496H295.21C291.042 417.496 287.662 414.132 287.662 409.981V369.398C287.662 365.247 291.042 361.882 295.21 361.882Z" stroke="#1D1C1A" stroke-width="2.2"/>
<path fill-rule="evenodd" clip-rule="evenodd" d="M297.943 364.543H325.326C329.238 364.543 332.408 367.7 332.408 371.594V406.85C332.408 410.744 329.238 413.901 325.326 413.901H297.943C294.032 413.901 290.861 410.744 290.861 406.85V371.594C290.861 367.7 294.032 364.543 297.943 364.543Z" fill="#FDB515"/>
<path fill-rule="evenodd" clip-rule="evenodd" d="M298.125 365.011H325.508C329.42 365.011 332.59 368.168 332.59 372.062V407.317C332.59 411.211 329.42 414.369 325.508 414.369H298.125C294.214 414.369 291.042 411.211 291.042 407.317V372.062C291.042 368.168 294.214 365.011 298.125 365.011Z" stroke="#1D1C1A"/>
<path fill-rule="evenodd" clip-rule="evenodd" d="M301.373 402.641C301.373 403.819 300.401 404.774 299.202 404.774C298.003 404.774 297.031 403.819 297.031 402.641C297.031 401.463 298.003 400.509 299.202 400.509C300.401 400.509 301.373 401.463 301.373 402.641Z" fill="white"/>
<path fill-rule="evenodd" clip-rule="evenodd" d="M318.671 401.629H303.288C303.183 401.629 303.098 401.567 303.098 401.489V400.649C303.098 400.571 303.183 400.509 303.288 400.509H318.671C318.776 400.509 318.861 400.571 318.861 400.649V401.489C318.861 401.567 318.776 401.629 318.671 401.629Z" fill="white"/>
<path fill-rule="evenodd" clip-rule="evenodd" d="M312.246 403.634H303.288C303.183 403.634 303.098 403.589 303.098 403.534V402.938C303.098 402.883 303.183 402.839 303.288 402.839H312.246C312.351 402.839 312.436 402.883 312.436 402.938V403.534C312.436 403.589 312.351 403.634 312.246 403.634Z" fill="white"/>
<path fill-rule="evenodd" clip-rule="evenodd" d="M315.131 403.634H313.668C313.563 403.634 313.478 403.589 313.478 403.534V402.938C313.478 402.883 313.563 402.839 313.668 402.839H315.131C315.236 402.839 315.321 402.883 315.321 402.938V403.534C315.321 403.589 315.236 403.634 315.131 403.634Z" fill="white"/>
<path fill-rule="evenodd" clip-rule="evenodd" d="M323.668 405.596H310.426C310.321 405.596 310.236 405.552 310.236 405.497V404.901C310.236 404.846 310.321 404.801 310.426 404.801H323.668C323.773 404.801 323.858 404.846 323.858 404.901V405.497C323.858 405.552 323.773 405.596 323.668 405.596Z" fill="white"/>
<path fill-rule="evenodd" clip-rule="evenodd" d="M309.034 405.596H303.288C303.183 405.596 303.098 405.552 303.098 405.497V404.901C303.098 404.846 303.183 404.801 303.288 404.801H309.034C309.139 404.801 309.224 404.846 309.224 404.901V405.497C309.224 405.552 309.139 405.596 309.034 405.596Z" fill="white"/>
<path opacity="0.75" fill-rule="evenodd" clip-rule="evenodd" d="M326.985 396.487H297.006C296.947 396.487 296.899 396.423 296.899 396.345C296.899 396.266 296.947 396.203 297.006 396.203H326.985C327.044 396.203 327.092 396.266 327.092 396.345C327.092 396.423 327.044 396.487 326.985 396.487Z" fill="white"/>
<path fill-rule="evenodd" clip-rule="evenodd" d="M301.373 389.168C301.373 390.346 300.401 391.301 299.202 391.301C298.003 391.301 297.031 390.346 297.031 389.168C297.031 387.99 298.003 387.035 299.202 387.035C300.401 387.035 301.373 387.99 301.373 389.168Z" fill="white"/>
<path fill-rule="evenodd" clip-rule="evenodd" d="M315.459 388.156H303.288C303.183 388.156 303.098 388.093 303.098 388.016V387.175C303.098 387.098 303.183 387.035 303.288 387.035H315.459C315.564 387.035 315.649 387.098 315.649 387.175V388.016C315.649 388.093 315.564 388.156 315.459 388.156Z" fill="white"/>
<path fill-rule="evenodd" clip-rule="evenodd" d="M317.243 390.16H303.288C303.183 390.16 303.098 390.116 303.098 390.061V389.465C303.098 389.41 303.183 389.365 303.288 389.365H317.243C317.348 389.365 317.433 389.41 317.433 389.465V390.061C317.433 390.116 317.348 390.16 317.243 390.16Z" fill="white"/>
<path fill-rule="evenodd" clip-rule="evenodd" d="M321.912 390.16H318.307C318.202 390.16 318.117 390.116 318.117 390.061V389.465C318.117 389.41 318.202 389.365 318.307 389.365H321.912C322.017 389.365 322.102 389.41 322.102 389.465V390.061C322.102 390.116 322.017 390.16 321.912 390.16Z" fill="white"/>
<path fill-rule="evenodd" clip-rule="evenodd" d="M326.165 390.16H322.917C322.812 390.16 322.727 390.116 322.727 390.061V389.465C322.727 389.41 322.812 389.365 322.917 389.365H326.165C326.27 389.365 326.355 389.41 326.355 389.465V390.061C326.355 390.116 326.27 390.16 326.165 390.16Z" fill="white"/>
<path fill-rule="evenodd" clip-rule="evenodd" d="M318.671 392.123H303.288C303.183 392.123 303.098 392.078 303.098 392.024V391.427C303.098 391.372 303.183 391.328 303.288 391.328H318.671C318.776 391.328 318.861 391.372 318.861 391.427V392.024C318.861 392.078 318.776 392.123 318.671 392.123Z" fill="white"/>
<path opacity="0.75" fill-rule="evenodd" clip-rule="evenodd" d="M326.985 383.083H297.006C296.947 383.083 296.899 383.02 296.899 382.941C296.899 382.863 296.947 382.799 297.006 382.799H326.985C327.044 382.799 327.092 382.863 327.092 382.941C327.092 383.02 327.044 383.083 326.985 383.083Z" fill="white"/>
<path fill-rule="evenodd" clip-rule="evenodd" d="M318.671 374.752H303.288C303.183 374.752 303.098 374.69 303.098 374.612V373.772C303.098 373.694 303.183 373.632 303.288 373.632H318.671C318.776 373.632 318.861 373.694 318.861 373.772V374.612C318.861 374.69 318.776 374.752 318.671 374.752Z" fill="white"/>
<path fill-rule="evenodd" clip-rule="evenodd" d="M312.246 376.757H303.288C303.183 376.757 303.098 376.712 303.098 376.657V376.061C303.098 376.006 303.183 375.962 303.288 375.962H312.246C312.351 375.962 312.436 376.006 312.436 376.061V376.657C312.436 376.712 312.351 376.757 312.246 376.757Z" fill="white"/>
<path fill-rule="evenodd" clip-rule="evenodd" d="M315.131 376.757H313.668C313.563 376.757 313.478 376.712 313.478 376.657V376.061C313.478 376.006 313.563 375.962 313.668 375.962H315.131C315.236 375.962 315.321 376.006 315.321 376.061V376.657C315.321 376.712 315.236 376.757 315.131 376.757Z" fill="white"/>
<path fill-rule="evenodd" clip-rule="evenodd" d="M323.668 378.719H310.426C310.321 378.719 310.236 378.675 310.236 378.62V378.024C310.236 377.969 310.321 377.924 310.426 377.924H323.668C323.773 377.924 323.858 377.969 323.858 378.024V378.62C323.858 378.675 323.773 378.719 323.668 378.719Z" fill="white"/>
<path fill-rule="evenodd" clip-rule="evenodd" d="M309.034 378.719H303.288C303.183 378.719 303.098 378.675 303.098 378.62V378.024C303.098 377.969 303.183 377.924 303.288 377.924H309.034C309.139 377.924 309.224 377.969 309.224 378.024V378.62C309.224 378.675 309.139 378.719 309.034 378.719Z" fill="white"/>
<path fill-rule="evenodd" clip-rule="evenodd" d="M301.373 375.764C301.373 376.942 300.401 377.897 299.202 377.897C298.003 377.897 297.031 376.942 297.031 375.764C297.031 374.586 298.003 373.631 299.202 373.631C300.401 373.631 301.373 374.586 301.373 375.764Z" fill="white"/>
<path fill-rule="evenodd" clip-rule="evenodd" d="M455.027 262.437H116.63C109.52 262.437 103.757 256.686 103.757 249.592V245.97H467.9V249.592C467.9 256.686 462.137 262.437 455.027 262.437Z" fill="#BDBDBD"/>
<path fill-rule="evenodd" clip-rule="evenodd" d="M455.027 262.437H116.63C109.52 262.437 103.757 256.686 103.757 249.592V245.97H467.9V249.592C467.9 256.686 462.137 262.437 455.027 262.437Z" stroke="#1D1C1A" stroke-width="2.18619"/>
<path fill-rule="evenodd" clip-rule="evenodd" d="M303.518 254.752H267.038C262.226 254.752 258.325 250.86 258.325 246.058V245.97H312.231V246.058C312.231 250.86 308.331 254.752 303.518 254.752Z" fill="#BDBDBD"/>
<path fill-rule="evenodd" clip-rule="evenodd" d="M303.518 254.752H267.038C262.226 254.752 258.325 250.86 258.325 246.058V245.97H312.231V246.058C312.231 250.86 308.331 254.752 303.518 254.752Z" stroke="#1D1C1A" stroke-width="2.18619"/>
<path fill-rule="evenodd" clip-rule="evenodd" d="M434.896 245.423H137.861V66.0431C137.861 59.0111 143.573 53.3107 150.62 53.3107H422.136C429.183 53.3107 434.896 59.0111 434.896 66.0431V245.423Z" fill="#BDBDBD"/>
<path fill-rule="evenodd" clip-rule="evenodd" d="M434.896 245.423H137.861V66.0431C137.861 59.0111 143.573 53.3107 150.62 53.3107H422.136C429.183 53.3107 434.896 59.0111 434.896 66.0431V245.423Z" stroke="#1D1C1A" stroke-width="2.18619"/>
<path fill-rule="evenodd" clip-rule="evenodd" d="M289.312 62.093C289.312 63.7098 287.999 65.0205 286.378 65.0205C284.758 65.0205 283.445 63.7098 283.445 62.093C283.445 60.4762 284.758 59.1655 286.378 59.1655C287.999 59.1655 289.312 60.4762 289.312 62.093Z" fill="#1D1C1A"/>
<mask id="mask3_0_4109" style="mask-type:alpha" maskUnits="userSpaceOnUse" x="102" y="52" width="367" height="212">
<path fill-rule="evenodd" clip-rule="evenodd" d="M102.657 263.535H469V52.2129H102.657V263.535Z" fill="white"/>
</mask>
<g mask="url(#mask3_0_4109)">
<path fill-rule="evenodd" clip-rule="evenodd" d="M351.279 237.737H421.688V68.6781H351.279V237.737Z" fill="#1D1C1A"/>
<path fill-rule="evenodd" clip-rule="evenodd" d="M351.279 237.737H421.688V215.781H351.279V237.737Z" fill="#BDBDBD"/>
<path fill-rule="evenodd" clip-rule="evenodd" d="M380.439 82.402H359.537C358.929 82.402 358.437 82.0334 358.437 81.5787V76.6386C358.437 76.1839 358.929 75.8153 359.537 75.8153H380.439C381.047 75.8153 381.54 76.1839 381.54 76.6386V81.5787C381.54 82.0334 381.047 82.402 380.439 82.402Z" fill="#BDBDBD"/>
<path fill-rule="evenodd" clip-rule="evenodd" d="M397.308 82.402H384.107C383.499 82.402 383.006 82.0334 383.006 81.5787V76.6386C383.006 76.1839 383.499 75.8153 384.107 75.8153H397.308C397.915 75.8153 398.408 76.1839 398.408 76.6386V81.5787C398.408 82.0334 397.915 82.402 397.308 82.402Z" fill="#BDBDBD"/>
<path fill-rule="evenodd" clip-rule="evenodd" d="M367.788 98.759H358.987C358.379 98.759 357.887 98.3658 357.887 97.8808V94.3679C357.887 93.8829 358.379 93.4896 358.987 93.4896H367.788C368.396 93.4896 368.888 93.8829 368.888 94.3679V97.8808C368.888 98.3658 368.396 98.759 367.788 98.759Z" fill="#BDBDBD"/>
<path fill-rule="evenodd" clip-rule="evenodd" d="M390.891 98.759H373.289C372.681 98.759 372.189 98.3658 372.189 97.8808V94.3679C372.189 93.8829 372.681 93.4896 373.289 93.4896H390.891C391.498 93.4896 391.991 93.8829 391.991 94.3679V97.8808C391.991 98.3658 391.498 98.759 390.891 98.759Z" fill="#BDBDBD"/>
<path fill-rule="evenodd" clip-rule="evenodd" d="M398.593 110.103H358.987C358.379 110.103 357.887 109.71 357.887 109.225V105.712C357.887 105.227 358.379 104.833 358.987 104.833H398.593C399.201 104.833 399.693 105.227 399.693 105.712V109.225C399.693 109.71 399.201 110.103 398.593 110.103Z" fill="#BDBDBD"/>
<path fill-rule="evenodd" clip-rule="evenodd" d="M394.192 132.058H358.987C358.379 132.058 357.887 131.665 357.887 131.18V127.667C357.887 127.182 358.379 126.789 358.987 126.789H394.192C394.8 126.789 395.292 127.182 395.292 127.667V131.18C395.292 131.665 394.8 132.058 394.192 132.058Z" fill="#BDBDBD"/>
<path fill-rule="evenodd" clip-rule="evenodd" d="M398.593 143.036H358.987C358.379 143.036 357.887 142.643 357.887 142.158V138.645C357.887 138.16 358.379 137.767 358.987 137.767H398.593C399.201 137.767 399.693 138.16 399.693 138.645V142.158C399.693 142.643 399.201 143.036 398.593 143.036Z" fill="#BDBDBD"/>
<path fill-rule="evenodd" clip-rule="evenodd" d="M380.99 154.014H358.987C358.379 154.014 357.887 153.621 357.887 153.136V149.623C357.887 149.138 358.379 148.745 358.987 148.745H380.99C381.597 148.745 382.09 149.138 382.09 149.623V153.136C382.09 153.621 381.597 154.014 380.99 154.014Z" fill="#BDBDBD"/>
<path fill-rule="evenodd" clip-rule="evenodd" d="M389.973 154.014H385.574C384.966 154.014 384.473 153.621 384.473 153.136V149.623C384.473 149.138 384.966 148.745 385.574 148.745H389.973C390.581 148.745 391.073 149.138 391.073 149.623V153.136C391.073 153.621 390.581 154.014 389.973 154.014Z" fill="#BDBDBD"/>
<path fill-rule="evenodd" clip-rule="evenodd" d="M372.188 164.992H358.987C358.379 164.992 357.887 164.599 357.887 164.114V160.601C357.887 160.116 358.379 159.723 358.987 159.723H372.188C372.796 159.723 373.288 160.116 373.288 160.601V164.114C373.288 164.599 372.796 164.992 372.188 164.992Z" fill="#BDBDBD"/>
<path fill-rule="evenodd" clip-rule="evenodd" d="M395.475 164.992H377.873C377.265 164.992 376.773 164.599 376.773 164.114V160.601C376.773 160.116 377.265 159.723 377.873 159.723H395.475C396.082 159.723 396.575 160.116 396.575 160.601V164.114C396.575 164.599 396.082 164.992 395.475 164.992Z" fill="#BDBDBD"/>
<path fill-rule="evenodd" clip-rule="evenodd" d="M398.593 175.97H358.987C358.379 175.97 357.887 175.577 357.887 175.092V171.579C357.887 171.094 358.379 170.7 358.987 170.7H398.593C399.201 170.7 399.693 171.094 399.693 171.579V175.092C399.693 175.577 399.201 175.97 398.593 175.97Z" fill="#BDBDBD"/>
<path fill-rule="evenodd" clip-rule="evenodd" d="M398.593 186.948H358.987C358.379 186.948 357.887 186.554 357.887 186.069V182.556C357.887 182.071 358.379 181.678 358.987 181.678H398.593C399.201 181.678 399.693 182.071 399.693 182.556V186.069C399.693 186.554 399.201 186.948 398.593 186.948Z" fill="#BDBDBD"/>
<path fill-rule="evenodd" clip-rule="evenodd" d="M353.926 107.468C353.926 108.923 352.744 110.103 351.286 110.103C349.828 110.103 348.646 108.923 348.646 107.468C348.646 106.013 349.828 104.833 351.286 104.833C352.744 104.833 353.926 106.013 353.926 107.468Z" fill="#BDBDBD"/>
<path fill-rule="evenodd" clip-rule="evenodd" d="M353.926 139.304C353.926 140.759 352.744 141.938 351.286 141.938C349.828 141.938 348.646 140.759 348.646 139.304C348.646 137.849 349.828 136.669 351.286 136.669C352.744 136.669 353.926 137.849 353.926 139.304Z" fill="#BDBDBD"/>
<path fill-rule="evenodd" clip-rule="evenodd" d="M353.926 151.379C353.926 152.835 352.744 154.014 351.286 154.014C349.828 154.014 348.646 152.835 348.646 151.379C348.646 149.924 349.828 148.745 351.286 148.745C352.744 148.745 353.926 149.924 353.926 151.379Z" fill="#BDBDBD"/>
<path fill-rule="evenodd" clip-rule="evenodd" d="M421.694 123.935H349.088C349.085 123.935 349.083 123.933 349.083 123.93V112.957H421.689C421.692 112.957 421.694 112.959 421.694 112.962V123.935Z" fill="#FDB515"/>
<path fill-rule="evenodd" clip-rule="evenodd" d="M398.593 121.081H358.987C358.379 121.081 357.887 120.687 357.887 120.202V116.689C357.887 116.204 358.379 115.811 358.987 115.811H398.593C399.201 115.811 399.693 116.204 399.693 116.689V120.202C399.693 120.687 399.201 121.081 398.593 121.081Z" fill="#1D1C1A"/>
<path fill-rule="evenodd" clip-rule="evenodd" d="M394.191 226.761C394.191 231.005 390.743 234.445 386.49 234.445C382.237 234.445 378.789 231.005 378.789 226.761C378.789 222.517 382.237 219.076 386.49 219.076C390.743 219.076 394.191 222.517 394.191 226.761Z" fill="#1D1C1A"/>
<path fill-rule="evenodd" clip-rule="evenodd" d="M175.258 237.737H351.279V68.6781H175.258V237.737Z" fill="#FDB515"/>
<path fill-rule="evenodd" clip-rule="evenodd" d="M257.687 82.402H187.275C186.668 82.402 186.175 82.0334 186.175 81.5787V76.6386C186.175 76.1839 186.668 75.8153 187.275 75.8153H257.687C258.294 75.8153 258.787 76.1839 258.787 76.6386V81.5787C258.787 82.0334 258.294 82.402 257.687 82.402Z" fill="white"/>
<path fill-rule="evenodd" clip-rule="evenodd" d="M199.56 99.1431C199.56 102.831 196.563 105.821 192.867 105.821C189.171 105.821 186.175 102.831 186.175 99.1431C186.175 95.4549 189.171 92.465 192.867 92.465C196.563 92.465 199.56 95.4549 199.56 99.1431Z" fill="white"/>
<path fill-rule="evenodd" clip-rule="evenodd" d="M242.979 95.9744H205.464C205.14 95.9744 204.878 95.778 204.878 95.5357V92.9036C204.878 92.6614 205.14 92.465 205.464 92.465H242.979C243.303 92.465 243.565 92.6614 243.565 92.9036V95.5357C243.565 95.778 243.303 95.9744 242.979 95.9744Z" fill="white"/>
<path fill-rule="evenodd" clip-rule="evenodd" d="M248.48 102.218H205.464C205.14 102.218 204.877 102.08 204.877 101.911V100.068C204.877 99.8985 205.14 99.761 205.464 99.761H248.48C248.804 99.761 249.066 99.8985 249.066 100.068V101.911C249.066 102.08 248.804 102.218 248.48 102.218Z" fill="white"/>
<path fill-rule="evenodd" clip-rule="evenodd" d="M262.871 102.218H251.761C251.437 102.218 251.175 102.08 251.175 101.911V100.068C251.175 99.8985 251.437 99.761 251.761 99.761H262.871C263.195 99.761 263.457 99.8985 263.457 100.068V101.911C263.457 102.08 263.195 102.218 262.871 102.218Z" fill="white"/>
<path fill-rule="evenodd" clip-rule="evenodd" d="M275.981 102.218H265.971C265.647 102.218 265.385 102.08 265.385 101.911V100.068C265.385 99.8985 265.647 99.761 265.971 99.761H275.981C276.305 99.761 276.567 99.8985 276.567 100.068V101.911C276.567 102.08 276.305 102.218 275.981 102.218Z" fill="white"/>
<path fill-rule="evenodd" clip-rule="evenodd" d="M252.881 108.363H205.464C205.14 108.363 204.877 108.226 204.877 108.056V106.214C204.877 106.044 205.14 105.907 205.464 105.907H252.881C253.204 105.907 253.467 106.044 253.467 106.214V108.056C253.467 108.226 253.204 108.363 252.881 108.363Z" fill="white"/>
<path fill-rule="evenodd" clip-rule="evenodd" d="M199.56 202.335C199.56 206.023 196.563 209.013 192.867 209.013C189.171 209.013 186.175 206.023 186.175 202.335C186.175 198.647 189.171 195.657 192.867 195.657C196.563 195.657 199.56 198.647 199.56 202.335Z" fill="white"/>
<path fill-rule="evenodd" clip-rule="evenodd" d="M252.881 199.166H205.464C205.14 199.166 204.877 198.97 204.877 198.727V196.095C204.877 195.853 205.14 195.657 205.464 195.657H252.881C253.204 195.657 253.467 195.853 253.467 196.095V198.727C253.467 198.97 253.204 199.166 252.881 199.166Z" fill="white"/>
<path fill-rule="evenodd" clip-rule="evenodd" d="M233.077 205.409H205.464C205.14 205.409 204.877 205.272 204.877 205.102V203.26C204.877 203.09 205.14 202.953 205.464 202.953H233.077C233.401 202.953 233.663 203.09 233.663 203.26V205.102C233.663 205.272 233.401 205.409 233.077 205.409Z" fill="white"/>
<path fill-rule="evenodd" clip-rule="evenodd" d="M241.968 205.409H237.459C237.135 205.409 236.873 205.272 236.873 205.102V203.26C236.873 203.09 237.135 202.953 237.459 202.953H241.968C242.292 202.953 242.554 203.09 242.554 203.26V205.102C242.554 205.272 242.292 205.409 241.968 205.409Z" fill="white"/>
<path fill-rule="evenodd" clip-rule="evenodd" d="M268.283 211.555H227.468C227.144 211.555 226.881 211.418 226.881 211.248V209.406C226.881 209.236 227.144 209.099 227.468 209.099H268.283C268.607 209.099 268.87 209.236 268.87 209.406V211.248C268.87 211.418 268.607 211.555 268.283 211.555Z" fill="white"/>
<path fill-rule="evenodd" clip-rule="evenodd" d="M223.175 211.555H205.464C205.14 211.555 204.877 211.418 204.877 211.248V209.406C204.877 209.236 205.14 209.099 205.464 209.099H223.175C223.499 209.099 223.761 209.236 223.761 209.406V211.248C223.761 211.418 223.499 211.555 223.175 211.555Z" fill="white"/>
<path opacity="0.75" fill-rule="evenodd" clip-rule="evenodd" d="M341.378 115.883H186.26C185.956 115.883 185.71 115.637 185.71 115.334C185.71 115.031 185.956 114.785 186.26 114.785H341.378C341.682 114.785 341.928 115.031 341.928 115.334C341.928 115.637 341.682 115.883 341.378 115.883Z" fill="white"/>
<path opacity="0.75" fill-rule="evenodd" clip-rule="evenodd" d="M341.378 189.434H186.26C185.956 189.434 185.71 189.189 185.71 188.885C185.71 188.582 185.956 188.337 186.26 188.337H341.378C341.682 188.337 341.928 188.582 341.928 188.885C341.928 189.189 341.682 189.434 341.378 189.434Z" fill="white"/>
<path fill-rule="evenodd" clip-rule="evenodd" d="M199.56 128.783C199.56 132.472 196.563 135.462 192.867 135.462C189.171 135.462 186.175 132.472 186.175 128.783C186.175 125.095 189.171 122.105 192.867 122.105C196.563 122.105 199.56 125.095 199.56 128.783Z" fill="white"/>
<path fill-rule="evenodd" clip-rule="evenodd" d="M236.378 125.615H205.464C205.14 125.615 204.877 125.418 204.877 125.176V122.544C204.877 122.302 205.14 122.105 205.464 122.105H236.378C236.701 122.105 236.964 122.302 236.964 122.544V125.176C236.964 125.418 236.701 125.615 236.378 125.615Z" fill="white"/>
<path fill-rule="evenodd" clip-rule="evenodd" d="M229.776 131.858H205.464C205.14 131.858 204.877 131.72 204.877 131.551V129.708C204.877 129.539 205.14 129.401 205.464 129.401H229.776C230.1 129.401 230.363 129.539 230.363 129.708V131.551C230.363 131.72 230.1 131.858 229.776 131.858Z" fill="white"/>
<path fill-rule="evenodd" clip-rule="evenodd" d="M288.579 181.751H206.069C205.461 181.751 204.969 181.26 204.969 180.654V135.645C204.969 135.038 205.461 134.547 206.069 134.547H288.579C289.186 134.547 289.679 135.038 289.679 135.645V180.654C289.679 181.26 289.186 181.751 288.579 181.751Z" fill="white"/>
<path fill-rule="evenodd" clip-rule="evenodd" d="M326.258 79.1086C326.258 81.2306 324.534 82.9508 322.408 82.9508C320.281 82.9508 318.557 81.2306 318.557 79.1086C318.557 76.9866 320.281 75.2664 322.408 75.2664C324.534 75.2664 326.258 76.9866 326.258 79.1086Z" fill="white"/>
<path fill-rule="evenodd" clip-rule="evenodd" d="M336.159 79.1086C336.159 81.2306 334.435 82.9508 332.309 82.9508C330.182 82.9508 328.458 81.2306 328.458 79.1086C328.458 76.9866 330.182 75.2664 332.309 75.2664C334.435 75.2664 336.159 76.9866 336.159 79.1086Z" fill="white"/>
<path fill-rule="evenodd" clip-rule="evenodd" d="M346.06 79.1086C346.06 81.2306 344.337 82.9508 342.21 82.9508C340.083 82.9508 338.36 81.2306 338.36 79.1086C338.36 76.9866 340.083 75.2664 342.21 75.2664C344.337 75.2664 346.06 76.9866 346.06 79.1086Z" fill="white"/>
<path fill-rule="evenodd" clip-rule="evenodd" d="M340.285 230.054H187.367C186.759 230.054 186.267 229.563 186.267 228.956V221.272C186.267 220.665 186.759 220.174 187.367 220.174H340.285C340.892 220.174 341.385 220.665 341.385 221.272V228.956C341.385 229.563 340.892 230.054 340.285 230.054Z" fill="white"/>
</g>
<path fill-rule="evenodd" clip-rule="evenodd" d="M175.12 237.737H177.32V68.6781H175.12V237.737Z" fill="url(#paint4_linear_0_4109)"/>
<path fill-rule="evenodd" clip-rule="evenodd" d="M349.079 237.737H351.595V68.6781H349.079V237.737Z" fill="url(#paint5_linear_0_4109)"/>
<path fill-rule="evenodd" clip-rule="evenodd" d="M151.055 237.737H175.258V68.6781H151.055V237.737Z" fill="#1D1C1A"/>
<path fill-rule="evenodd" clip-rule="evenodd" d="M171.598 87.342C171.598 91.9903 167.822 95.7584 163.164 95.7584C158.506 95.7584 154.73 91.9903 154.73 87.342C154.73 82.6938 158.506 78.9257 163.164 78.9257C167.822 78.9257 171.598 82.6938 171.598 87.342Z" fill="white"/>
<path fill-rule="evenodd" clip-rule="evenodd" d="M171.598 119.178C171.598 123.826 167.822 127.594 163.164 127.594C158.506 127.594 154.73 123.826 154.73 119.178C154.73 114.529 158.506 110.761 163.164 110.761C167.822 110.761 171.598 114.529 171.598 119.178Z" fill="#FDB515"/>
<path fill-rule="evenodd" clip-rule="evenodd" d="M171.598 142.231C171.598 146.879 167.822 150.648 163.164 150.648C158.506 150.648 154.73 146.879 154.73 142.231C154.73 137.583 158.506 133.815 163.164 133.815C167.822 133.815 171.598 137.583 171.598 142.231Z" fill="#FDB515"/>
<path fill-rule="evenodd" clip-rule="evenodd" d="M171.598 165.285C171.598 169.933 167.822 173.701 163.164 173.701C158.506 173.701 154.73 169.933 154.73 165.285C154.73 160.636 158.506 156.868 163.164 156.868C167.822 156.868 171.598 160.636 171.598 165.285Z" fill="#BDBDBD"/>
<path fill-rule="evenodd" clip-rule="evenodd" d="M171.958 103.807H154.356C154.052 103.807 153.806 103.562 153.806 103.258C153.806 102.955 154.052 102.709 154.356 102.709H171.958C172.262 102.709 172.508 102.955 172.508 103.258C172.508 103.562 172.262 103.807 171.958 103.807Z" fill="#BDBDBD"/>
<path fill-rule="evenodd" clip-rule="evenodd" d="M151.056 237.737H421.688V68.6781H151.056V237.737Z" stroke="#1D1C1A" stroke-width="2.18619"/>
<defs>
<linearGradient id="paint0_linear_0_4109" x1="452.616" y1="370.326" x2="452.616" y2="368.751" gradientUnits="userSpaceOnUse">
<stop stop-color="#FFC107"/>
<stop offset="1" stop-color="#212121"/>
</linearGradient>
<linearGradient id="paint1_linear_0_4109" x1="76.4369" y1="41.3385" x2="76.4369" y2="39.131" gradientUnits="userSpaceOnUse">
<stop offset="0.214106" stop-color="#FFC107"/>
<stop offset="1" stop-color="#212121"/>
</linearGradient>
<linearGradient id="paint2_linear_0_4109" x1="167.284" y1="407.868" x2="168.866" y2="407.868" gradientUnits="userSpaceOnUse">
<stop stop-color="#FFC107"/>
<stop offset="1" stop-color="#212121"/>
</linearGradient>
<linearGradient id="paint3_linear_0_4109" x1="58.5889" y1="533.125" x2="60.1708" y2="533.125" gradientUnits="userSpaceOnUse">
<stop stop-color="#FFC107"/>
<stop offset="1" stop-color="#212121"/>
</linearGradient>
<linearGradient id="paint4_linear_0_4109" x1="177.085" y1="68.6781" x2="175.356" y2="68.6781" gradientUnits="userSpaceOnUse">
<stop stop-color="#FFC107"/>
<stop offset="1" stop-color="#212121"/>
</linearGradient>
<linearGradient id="paint5_linear_0_4109" x1="349.348" y1="201.54" x2="351.326" y2="201.54" gradientUnits="userSpaceOnUse">
<stop stop-color="#FFC107"/>
<stop offset="1" stop-color="#212121"/>
</linearGradient>
</defs>
</svg>
